SplineFontDB: 3.0
FontName: SimpleCLM-Bold
FullName: Simple CLM Bold
FamilyName: Simple CLM
Weight: Bold
Copyright: Copyright 2007-2010 by Yoram Gnat (yoram-gnat@homeil.com). Distributed under the terms of GNU GPL version2 (http://www.gnu.org/licenses/gpl.html).\n\nLatin glyphs, digits and punctuation copyright 1999 by (URW)++ Design & Development. \nAll rights reserved. \n \nHebrew vowel marks positioning algorithms Copyright 2010 by Yoram Gnat 2010. (yoram.gnat@gmail.com. \n\nAs a special exception, if you create a document which uses this font, and embed this font or unaltered portions of this font into the document, this font does not by itself cause the resulting document to be covered by the GNU General Public License. This exception does not however invalidate any other reasons why the document might be covered by the GNU General Public License. If you modify this font, you may extend this exception to your version of the font, but you are not obligated to do so. If you do not wish to do so, delete this exception statement from your version. \n\n
Version: 0.110
ItalicAngle: 0
UnderlinePosition: -580
UnderlineWidth: 200
Ascent: 1638
Descent: 410
LayerCount: 2
Layer: 0 0 "Back"  1
Layer: 1 0 "Fore"  0
NeedsXUIDChange: 1
UniqueID: 4247518
FSType: 0
OS2Version: 0
OS2_WeightWidthSlopeOnly: 0
OS2_UseTypoMetrics: 0
CreationTime: 1235598109
ModificationTime: 1286637305
PfmFamily: 33
TTFWeight: 700
TTFWidth: 7
LineGap: 184
VLineGap: 0
OS2TypoAscent: 0
OS2TypoAOffset: 1
OS2TypoDescent: 0
OS2TypoDOffset: 1
OS2TypoLinegap: 184
OS2WinAscent: 0
OS2WinAOffset: 1
OS2WinDescent: 50
OS2WinDOffset: 1
HheadAscent: 0
HheadAOffset: 1
HheadDescent: 0
HheadDOffset: 1
OS2Vendor: 'PfEd'
OS2CodePages: 00000021.00000000
Lookup: 4 1 0 "'ccmp' YodHiriq bug in Hebrew Script"  {"'ccmp' YodHiriq in Hebrew Script"  } ['ccmp' ('hebr' <'dflt' > ) ]
Lookup: 4 1 0 "'ccmp' Shin dots Compositions"  {"'ccmp' Shin dots Compositions"  } ['ccmp' ('hebr' <'dflt' > ) ]

StartChar: exclam
Encoding: 33 33 1
Width: 522
Flags: W
HStem: -25 245<210 416>
VStem: 210 206<-25 220 589.663 1395>
LayerCount: 2
Fore
SplineSet
416 734 m 1
 372 291 l 1
 253 291 l 1
 210 734 l 1
 210 1395 l 1
 416 1395 l 1
 416 734 l 1
416 220 m 1
 416 -25 l 1
 210 -25 l 1
 210 220 l 1
 416 220 l 1
EndSplineSet
Validated: 1
EndChar

StartChar: quotedbl
Encoding: 34 34 2
Width: 667
Flags: W
HStem: 847 510<127 243 429 542>
VStem: 73 224<1048.99 1357> 127 116<847 920.007> 373 225<1050.86 1357> 429 113<847 917.144>
LayerCount: 2
Fore
SplineSet
73 1357 m 1xc0
 297 1357 l 1
 297 1122 l 1xc0
 243 847 l 1
 127 847 l 1xa0
 73 1122 l 1
 73 1357 l 1xc0
373 1357 m 1x90
 598 1357 l 1
 598 1121 l 1x90
 542 847 l 1
 429 847 l 1x88
 373 1121 l 1
 373 1357 l 1x90
EndSplineSet
Validated: 1
EndChar

StartChar: numbersign
Encoding: 35 35 3
Width: 1044
Flags: W
HStem: 334 178<0 186 413 564 791 983> 789 177<71 269 496 646 874 1043>
LayerCount: 2
Fore
SplineSet
874 966 m 1
 1043 966 l 1
 1043 789 l 1
 840 789 l 1
 791 512 l 1
 983 512 l 1
 983 334 l 1
 759 334 l 1
 686 -63 l 1
 492 -63 l 1
 564 334 l 1
 382 334 l 1
 308 -63 l 1
 115 -63 l 1
 186 334 l 1
 0 334 l 1
 0 512 l 1
 219 512 l 1
 269 789 l 1
 71 789 l 1
 71 966 l 1
 302 966 l 1
 370 1335 l 1
 564 1335 l 1
 496 966 l 1
 680 966 l 1
 746 1335 l 1
 941 1335 l 1
 874 966 l 1
646 789 m 1
 464 789 l 1
 413 512 l 1
 597 512 l 1
 646 789 l 1
EndSplineSet
Validated: 1
EndChar

StartChar: dollar
Encoding: 36 36 4
Width: 1144
Flags: W
HStem: -42 182<650 772.81> 585 184<373.605 473 650 735.152> 925 21G<834 1032> 1157 185<362.178 473 650 755.822>
VStem: 62 198<231.375 441> 86 203<846.607 1087.33> 473 177<-237 -42 141 572 769 1157 1344 1447> 834 198<925 1077.68> 869 204<235.261 488.106>
LayerCount: 2
Fore
SplineSet
473 585 m 1xfa80
 377 610 86 661 86 961 c 0
 86 1171 217 1306 473 1342 c 1
 473 1447 l 1
 650 1447 l 1
 650 1344 l 1
 892 1344 1032 1171 1032 950 c 2
 1032 925 l 1
 834 925 l 1
 834 950 l 2xf7
 834 1064 759 1148 650 1160 c 1
 650 757 l 1
 822 712 1073 669 1073 376 c 0
 1073 139 907 -42 650 -42 c 1
 650 -237 l 1
 473 -237 l 1
 473 -42 l 1
 196 -42 62 148 62 416 c 2
 62 441 l 1
 260 441 l 1
 260 416 l 2
 260 304 275 275 303 233 c 1
 339 188 399 155 473 141 c 1
 473 585 l 1xfa80
289 963 m 0
 289 868 345 807 473 769 c 1
 473 1157 l 1
 361 1135 289 1073 289 963 c 0
650 140 m 1
 847 168 869 313 869 369 c 0xf280
 869 467 832 520 650 572 c 1
 650 140 l 1
EndSplineSet
Validated: 1
EndChar

StartChar: percent
Encoding: 37 37 5
Width: 1770
Flags: W
HStem: -36 182<1246.13 1485.21> 448 182<1245.5 1481.72> 619 182<285.443 523.763> 1106 181<287.296 523.771>
VStem: 54 180<852.786 1054.37> 578 187<853.181 1053.6> 1003 188<198.678 396.207> 1534 180<196.669 396.714>
LayerCount: 2
Fore
SplineSet
403 1287 m 0xbf
 606 1287 765 1139 765 950 c 0
 765 770 603 619 406 619 c 0
 210 619 54 769 54 953 c 0
 54 1138 210 1287 403 1287 c 0xbf
403 1106 m 0
 310 1106 234 1038 234 954 c 0
 234 871 309 801 406 801 c 0
 499 801 578 870 578 952 c 0
 578 1038 501 1106 403 1106 c 0
1192 1332 m 1
 1381 1332 l 1
 578 -36 l 1
 389 -36 l 1
 1192 1332 l 1
1364 630 m 0xdf
 1562 630 1714 482 1714 295 c 0
 1714 115 1557 -36 1366 -36 c 0
 1166 -36 1003 114 1003 298 c 0
 1003 481 1166 630 1364 630 c 0xdf
1364 448 m 0
 1270 448 1191 380 1191 298 c 0
 1191 214 1270 146 1366 146 c 0
 1460 146 1534 215 1534 295 c 0
 1534 380 1461 448 1364 448 c 0
EndSplineSet
Validated: 1
EndChar

StartChar: ampersand
Encoding: 38 38 6
Width: 1253
Flags: W
HStem: -68 196<372.45 649.454> -25 21G<964.296 1249> 1176 181<460.71 668.382>
VStem: 73 208<215.249 468.914> 225 204<925.742 1142.64> 704 197<935.425 1142.85> 918 201<477.123 654>
LayerCount: 2
Fore
SplineSet
874 110 m 1x6e
 774 14 668 -68 483 -68 c 0
 239 -68 73 92 73 331 c 0xb6
 73 505 143 605 365 738 c 1
 262 871 225 946 225 1037 c 0
 225 1217 381 1357 571 1357 c 0
 764 1357 901 1223 901 1037 c 0
 901 898 839 811 656 703 c 1
 863 450 l 1
 892 515 918 558 918 629 c 2
 918 654 l 1
 1119 654 l 1
 1119 629 l 2
 1119 516 1065 393 999 286 c 1
 1249 -25 l 1
 980 -25 l 1
 874 110 l 1x6e
540 843 m 1
 668 925 704 971 704 1041 c 0
 704 1120 646 1176 566 1176 c 0
 480 1176 429 1120 429 1039 c 0x2e
 429 986 438 961 540 843 c 1
752 259 m 1
 480 600 l 1
 328 501 281 434 281 344 c 0
 281 226 381 128 502 128 c 0xb6
 587 128 658 163 752 259 c 1
EndSplineSet
Validated: 1
EndChar

StartChar: quotesingle
Encoding: 39 39 7
Width: 415
Flags: W
HStem: 909 486
VStem: 95 225<1150.59 1395> 185 135<1040.52 1149>
LayerCount: 2
Fore
SplineSet
95 1395 m 1xc0
 320 1395 l 1
 320 1180 l 2
 320 1020 251 909 120 909 c 2
 95 909 l 1
 95 1027 l 1xc0
 117 1030 l 2
 160 1036 185 1063 185 1149 c 1xa0
 95 1149 l 1
 95 1395 l 1xc0
EndSplineSet
Validated: 1
EndChar

StartChar: parenleft
Encoding: 40 40 8
Width: 625
Flags: W
VStem: 112 202<154.237 818.734>
LayerCount: 2
Fore
SplineSet
112 487 m 0
 112 755 208 1104 431 1395 c 1
 592 1395 l 1
 568 1357 l 2
 406 1094 314 781 314 487 c 0
 314 191 406 -120 568 -385 c 2
 592 -423 l 1
 431 -423 l 1
 208 -132 112 218 112 487 c 0
EndSplineSet
Validated: 1
EndChar

StartChar: parenright
Encoding: 41 41 9
Width: 625
Flags: W
VStem: 304 202<153.266 817.763>
LayerCount: 2
Fore
SplineSet
506 485 m 0
 506 217 410 -132 187 -423 c 1
 26 -423 l 1
 50 -385 l 2
 212 -122 304 191 304 485 c 0
 304 781 212 1092 50 1357 c 2
 26 1395 l 1
 187 1395 l 1
 410 1104 506 754 506 485 c 0
EndSplineSet
Validated: 1
EndChar

StartChar: asterisk
Encoding: 42 42 10
Width: 730
Flags: W
HStem: 794 601
VStem: 283 154<1195 1395>
LayerCount: 2
Fore
SplineSet
275 1395 m 1
 445 1395 l 1
 437 1195 l 1
 625 1263 l 1
 676 1103 l 1
 485 1049 l 1
 609 891 l 1
 470 794 l 1
 361 958 l 1
 248 794 l 1
 112 891 l 1
 235 1049 l 1
 43 1103 l 1
 95 1263 l 1
 283 1195 l 1
 275 1395 l 1
EndSplineSet
Validated: 1
EndChar

StartChar: plus
Encoding: 43 43 11
Width: 1097
Flags: W
HStem: 345 182<69 458 639 1028>
VStem: 458 181<-44 345 527 916>
LayerCount: 2
Fore
SplineSet
1028 527 m 1
 1028 345 l 1
 639 345 l 1
 639 -44 l 1
 458 -44 l 1
 458 345 l 1
 69 345 l 1
 69 527 l 1
 458 527 l 1
 458 916 l 1
 639 916 l 1
 639 527 l 1
 1028 527 l 1
EndSplineSet
Validated: 1
EndChar

StartChar: comma
Encoding: 44 44 12
Width: 522
Flags: W
HStem: -301 121<138 240.092> -25 245<138 251>
VStem: 138 248<-265 -180 -25 220> 251 135<-171.484 -25>
LayerCount: 2
Fore
SplineSet
138 220 m 1xe0
 386 220 l 1xe0
 386 -30 l 2xd0
 386 -265 252 -301 163 -301 c 2
 138 -301 l 1
 138 -180 l 1xe0
 163 -180 l 2
 228 -180 251 -161 251 -34 c 2
 251 -25 l 1xd0
 138 -25 l 1
 138 220 l 1xe0
EndSplineSet
Validated: 1
EndChar

StartChar: hyphen
Encoding: 45 45 13
Width: 625
Flags: W
HStem: 426 185<61 559>
VStem: 61 498<426 611>
LayerCount: 2
Fore
SplineSet
559 611 m 1
 559 426 l 1
 61 426 l 1
 61 611 l 1
 559 611 l 1
EndSplineSet
Validated: 1
EndChar

StartChar: period
Encoding: 46 46 14
Width: 522
Flags: W
HStem: -25 245<138 384>
VStem: 138 246<-25 220>
LayerCount: 2
Fore
SplineSet
384 220 m 1
 384 -25 l 1
 138 -25 l 1
 138 220 l 1
 384 220 l 1
EndSplineSet
Validated: 1
EndChar

StartChar: slash
Encoding: 47 47 15
Width: 522
Flags: W
VStem: -49 617
LayerCount: 2
Fore
SplineSet
412 1395 m 1
 568 1395 l 1
 106 -63 l 1
 -49 -63 l 1
 412 1395 l 1
EndSplineSet
Validated: 1
EndChar

StartChar: zero
Encoding: 48 48 16
Width: 1144
Flags: W
HStem: -43 187<433.189 699.324> 1136 196<435.479 700.14>
VStem: 81 219<317.817 959.858> 834 219<316.295 958.252>
LayerCount: 2
Fore
SplineSet
81 641 m 0
 81 1142 275 1332 567 1332 c 0
 956 1332 1053 1001 1053 630 c 0
 1053 200 892 -43 567 -43 c 0
 361 -43 81 50 81 641 c 0
567 1136 m 0
 405 1136 300 1008 300 643 c 0
 300 278 403 144 563 144 c 0
 727 144 834 264 834 648 c 0
 834 1005 729 1136 567 1136 c 0
EndSplineSet
Validated: 1
EndChar

StartChar: one
Encoding: 49 49 17
Width: 1094
Flags: W
VStem: 487 215<0 914> 549 153<1204.4 1332>
LayerCount: 2
Fore
SplineSet
487 0 m 1x80
 487 914 l 1x80
 192 914 l 1
 192 1073 l 1
 214 1076 l 2
 467 1106 491 1128 549 1332 c 1
 702 1332 l 1x40
 702 0 l 1
 487 0 l 1x80
EndSplineSet
Validated: 1
EndChar

StartChar: two
Encoding: 50 50 18
Width: 1144
Flags: W
HStem: 0 213<306 1051> 1137 195<423.131 741.516>
VStem: 94 215<820 1021.12> 841 219<799.042 1044.27>
LayerCount: 2
Fore
SplineSet
586 1332 m 0
 950 1332 1060 1091 1060 930 c 0
 1060 769 962 628 759 526 c 1
 551 430 l 1
 394 351 329 293 306 213 c 1
 1051 213 l 1
 1051 0 l 1
 64 0 l 1
 64 25 l 2
 64 311 162 441 466 598 c 1
 658 692 l 2
 779 752 841 830 841 923 c 0
 841 1046 732 1137 580 1137 c 0
 459 1137 309 1079 309 845 c 2
 309 820 l 1
 94 820 l 1
 94 845 l 2
 94 1235 339 1332 586 1332 c 0
EndSplineSet
Validated: 1
EndChar

StartChar: three
Encoding: 51 51 19
Width: 1144
Flags: W
HStem: -43 196<370.506 735.816> 586 191<427 728.201> 1137 195<395.723 719.08>
VStem: 60 215<248.942 437> 88 216<852 1052.86> 791 220<833.311 1069.34> 832 219<246.33 511.725>
LayerCount: 2
Fore
SplineSet
549 -43 m 0xe2
 149 -43 60 217 60 412 c 2
 60 437 l 1
 275 437 l 1
 275 412 l 2
 275 227 376 153 555 153 c 0
 729 153 832 235 832 382 c 0xf2
 832 504 762 586 555 586 c 2
 427 586 l 1
 427 777 l 1
 455 777 l 2
 683 777 791 804 791 948 c 0
 791 1069 702 1137 557 1137 c 0
 451 1137 370 1096 334 1033 c 0
 313 996 304 957 304 877 c 2
 304 852 l 1
 88 852 l 1
 88 877 l 2
 88 1179 251 1332 555 1332 c 0
 849 1332 1011 1188 1011 955 c 0xec
 1011 867 983 758 862 691 c 1
 991 633 1051 539 1051 382 c 0
 1051 126 864 -43 549 -43 c 0xe2
EndSplineSet
Validated: 1
EndChar

StartChar: four
Encoding: 52 52 20
Width: 1144
Flags: W
HStem: 294 199<271 647 880 1077>
VStem: 647 233<493 972> 664 216<0 294>
LayerCount: 2
Fore
SplineSet
664 0 m 1xa0
 664 294 l 1
 53 294 l 1
 53 497 l 1
 709 1332 l 1
 880 1332 l 1xa0
 880 493 l 1xc0
 1077 493 l 1
 1077 294 l 1
 880 294 l 1
 880 0 l 1
 664 0 l 1xa0
271 493 m 1
 647 493 l 1
 647 972 l 1xc0
 271 493 l 1
EndSplineSet
Validated: 1
EndChar

StartChar: five
Encoding: 53 53 21
Width: 1144
Flags: W
HStem: -43 196<393.861 737.173> 706 196<389.273 732.11> 1119 213<401 1000>
VStem: 851 219<267.134 589.203>
LayerCount: 2
Fore
SplineSet
559 706 m 0
 496 706 402 702 302 582 c 1
 109 582 l 1
 216 1332 l 1
 1000 1332 l 1
 1000 1119 l 1
 401 1119 l 1
 354 848 l 1
 430 887 507 902 592 902 c 0
 883 902 1070 717 1070 446 c 0
 1070 157 870 -43 562 -43 c 0
 389 -43 239 17 158 126 c 1
 116 179 95 237 72 347 c 2
 66 377 l 1
 281 377 l 1
 299 308 337 153 559 153 c 0
 745 153 851 255 851 424 c 0
 851 598 742 706 559 706 c 0
EndSplineSet
Validated: 1
EndChar

StartChar: six
Encoding: 54 54 22
Width: 1144
Flags: W
HStem: -43 196<428.021 734.388> 657 197<419.051 743.606> 1136 196<446.85 737.172>
VStem: 81 228<277.039 957.191> 845 219<262.813 555.564>
LayerCount: 2
Fore
SplineSet
825 935 m 1
 814 989 780 1136 600 1136 c 0
 382 1136 302 943 302 751 c 1
 379 819 484 854 610 854 c 0
 883 854 1064 673 1064 418 c 0
 1064 150 870 -43 579 -43 c 0
 519 -43 312 -38 198 133 c 1
 116 251 81 393 81 608 c 0
 81 841 119 1002 205 1131 c 0
 291 1259 444 1332 612 1332 c 0
 847 1332 1002 1195 1036 964 c 2
 1040 935 l 1
 825 935 l 1
586 657 m 0
 419 657 309 557 309 414 c 0
 309 263 426 153 581 153 c 0
 734 153 845 258 845 405 c 0
 845 561 750 657 586 657 c 0
EndSplineSet
Validated: 1
EndChar

StartChar: seven
Encoding: 55 55 23
Width: 1144
Flags: W
HStem: 1119 213<86 833>
LayerCount: 2
Fore
SplineSet
1077 1332 m 1
 1077 1160 l 1
 924 956 603 579 486 21 c 1
 482 0 l 1
 253 0 l 1
 260 31 l 1
 357 439 499 704 833 1119 c 1
 86 1119 l 1
 86 1332 l 1
 1077 1332 l 1
EndSplineSet
Validated: 1
EndChar

StartChar: eight
Encoding: 56 56 24
Width: 1144
Flags: W
HStem: -43 196<392.713 740.109> 603 189<405.65 728.35> 1136 196<408.823 726.09>
VStem: 70 219<247.991 506.876> 116 222<855.924 1070.8> 796 221<853.666 1072.22> 845 219<247.016 509.365>
LayerCount: 2
Fore
SplineSet
860 701 m 1xec
 952 651 1064 557 1064 378 c 0
 1064 131 868 -43 567 -43 c 0
 265 -43 70 131 70 380 c 0xf2
 70 558 183 652 273 701 c 1
 157 779 116 850 116 965 c 0
 116 1181 294 1332 567 1332 c 0
 843 1332 1017 1181 1017 965 c 0
 1017 849 977 777 860 701 c 1xec
567 1136 m 0
 429 1136 338 1070 338 963 c 0
 338 858 429 792 567 792 c 0
 706 792 796 858 796 961 c 0xec
 796 1070 707 1136 567 1136 c 0
567 603 m 0
 400 603 289 514 289 378 c 0
 289 243 399 153 563 153 c 0
 734 153 845 241 845 378 c 0xf2
 845 514 734 603 567 603 c 0
EndSplineSet
Validated: 1
EndChar

StartChar: nine
Encoding: 57 57 25
Width: 1144
Flags: W
HStem: -43 196<398.237 690.246> 435 197<392.025 716.402> 1137 195<400.612 707.843>
VStem: 71 219<733.25 1026.56> 826 230<326.769 1012.44>
LayerCount: 2
Fore
SplineSet
556 1332 m 0
 956 1332 1056 1022 1056 681 c 0
 1056 448 1018 287 930 158 c 1
 849 34 696 -43 523 -43 c 0
 288 -43 134 94 100 325 c 2
 96 354 l 1
 310 354 l 1
 321 301 356 153 536 153 c 0
 754 153 833 349 833 544 c 1
 748 469 650 435 527 435 c 0
 253 435 71 615 71 871 c 0
 71 1139 265 1332 556 1332 c 0
554 1137 m 0
 401 1137 290 1032 290 884 c 0
 290 728 385 632 548 632 c 0
 716 632 826 735 826 875 c 0
 826 1028 709 1137 554 1137 c 0
EndSplineSet
Validated: 1
EndChar

StartChar: colon
Encoding: 58 58 26
Width: 522
Flags: W
HStem: -25 245<182 427> 764 246<182 427>
VStem: 182 245<-25 220 764 1010>
LayerCount: 2
Fore
SplineSet
427 220 m 1
 427 -25 l 1
 182 -25 l 1
 182 220 l 1
 427 220 l 1
427 1010 m 1
 427 764 l 1
 182 764 l 1
 182 1010 l 1
 427 1010 l 1
EndSplineSet
Validated: 1
EndChar

StartChar: semicolon
Encoding: 59 59 27
Width: 522
Flags: W
HStem: -301 121<182 279.234> -25 245<182 294> 764 246<182 429>
VStem: 182 247<-265 -180 -25 220 764 1010> 294 135<-171.484 -25>
LayerCount: 2
Fore
SplineSet
429 1010 m 1xf0
 429 764 l 1
 182 764 l 1
 182 1010 l 1
 429 1010 l 1xf0
182 220 m 1
 429 220 l 1xf0
 429 -30 l 2xe8
 429 -265 296 -301 207 -301 c 2
 182 -301 l 1
 182 -180 l 1xf0
 207 -180 l 2
 271 -180 294 -161 294 -34 c 2
 294 -25 l 1xe8
 182 -25 l 1
 182 220 l 1
EndSplineSet
Validated: 1
EndChar

StartChar: less
Encoding: 60 60 28
Width: 1097
Flags: W
HStem: 909 20G<980.781 1028>
LayerCount: 2
Fore
SplineSet
60 355 m 1
 60 519 l 1
 1028 929 l 1
 1028 725 l 1
 329 440 l 1
 1028 149 l 1
 1028 -55 l 1
 60 355 l 1
EndSplineSet
Validated: 1
EndChar

StartChar: equal
Encoding: 61 61 29
Width: 1097
Flags: W
HStem: 184 181<69 1028> 507 181<69 1028>
LayerCount: 2
Fore
SplineSet
1028 688 m 1
 1028 507 l 1
 69 507 l 1
 69 688 l 1
 1028 688 l 1
1028 365 m 1
 1028 184 l 1
 69 184 l 1
 69 365 l 1
 1028 365 l 1
EndSplineSet
Validated: 1
EndChar

StartChar: greater
Encoding: 62 62 30
Width: 1097
Flags: W
HStem: 909 20G<69 116.268>
LayerCount: 2
Fore
SplineSet
1038 519 m 1
 1038 355 l 1
 69 -55 l 1
 69 149 l 1
 768 434 l 1
 69 725 l 1
 69 929 l 1
 1038 519 l 1
EndSplineSet
Validated: 1
EndChar

StartChar: question
Encoding: 63 63 31
Width: 1044
Flags: W
HStem: -25 245<426 645> 928 21G<120 329> 1221 196<401.223 692.21>
VStem: 120 209<928 1144.05> 426 219<-25 220 349 581.831> 762 219<899.123 1153.03>
LayerCount: 2
Fore
SplineSet
547 1221 m 0
 345 1221 329 1073 329 953 c 2
 329 928 l 1
 120 928 l 1
 120 953 l 2
 120 1260 274 1417 556 1417 c 0
 817 1417 981 1263 981 1032 c 0
 981 901 931 809 785 677 c 1
 662 563 645 537 645 462 c 2
 645 349 l 1
 426 349 l 1
 426 477 l 2
 426 758 762 797 762 1032 c 0
 762 1146 677 1221 547 1221 c 0
645 220 m 1
 645 -25 l 1
 426 -25 l 1
 426 220 l 1
 645 220 l 1
EndSplineSet
Validated: 1
EndChar

StartChar: at
Encoding: 64 64 32
Width: 1907
Flags: W
HStem: -292 195<676.294 1227.3> 91 171<749.866 961.039 1243.56 1424.59> 836 170<850.77 1077.42> 1223 194<723.539 1208.89>
VStem: 39 210<294.969 748.483> 471 219<323.852 650.227> 1598 214<473.089 863.046>
LayerCount: 2
Fore
SplineSet
1231 966 m 1
 1439 966 l 1
 1260 407 l 2
 1248 374 1239 338 1239 321 c 0
 1239 293 1267 264 1308 264 c 0
 1450 264 1598 461 1598 671 c 0
 1598 968 1310 1223 962 1223 c 0
 579 1223 249 893 249 513 c 0
 249 169 542 -97 928 -97 c 0
 1026 -97 1131 -81 1284 -38 c 2
 1306 -32 l 1
 1376 -202 l 1
 1352 -211 l 2
 1214 -263 1061 -292 919 -292 c 0
 433 -292 39 52 39 485 c 0
 39 739 156 997 344 1169 c 0
 513 1322 755 1417 986 1417 c 0
 1435 1417 1812 1091 1812 693 c 0
 1812 539 1748 382 1642 258 c 0
 1541 139 1422 82 1276 82 c 0
 1165 82 1089 124 1057 204 c 1
 982 131 902 91 802 91 c 0
 612 91 471 253 471 460 c 0
 471 743 710 1006 979 1006 c 0
 1073 1006 1150 962 1203 880 c 1
 1231 966 l 1
851 262 m 0
 1041 262 1119 588 1119 680 c 0
 1119 768 1059 836 968 836 c 0
 824 836 690 653 690 458 c 0
 690 345 765 262 851 262 c 0
EndSplineSet
Validated: 1
EndChar

StartChar: bracketleft
Encoding: 91 91 33
Width: 522
Flags: W
HStem: -423 185<301 495> 1209 186<301 495>
VStem: 95 400<-423 -238 1209 1395> 95 206<-238 1209>
LayerCount: 2
Fore
SplineSet
495 1395 m 1xe0
 495 1209 l 1xe0
 301 1209 l 1
 301 -238 l 1xd0
 495 -238 l 1
 495 -423 l 1
 95 -423 l 1
 95 1395 l 1
 495 1395 l 1xe0
EndSplineSet
Validated: 1
EndChar

StartChar: backslash
Encoding: 92 92 34
Width: 522
Flags: W
VStem: -49 617
LayerCount: 2
Fore
SplineSet
106 1395 m 1
 568 -63 l 1
 412 -63 l 1
 -49 1395 l 1
 106 1395 l 1
EndSplineSet
Validated: 1
EndChar

StartChar: bracketright
Encoding: 93 93 35
Width: 522
Flags: W
HStem: -423 185<18 212> 1209 186<18 212>
VStem: 18 400<-423 -238 1209 1395> 212 206<-238 1209>
LayerCount: 2
Fore
SplineSet
18 -423 m 1xe0
 18 -238 l 1xe0
 212 -238 l 1
 212 1209 l 1xd0
 18 1209 l 1
 18 1395 l 1
 418 1395 l 1
 418 -423 l 1
 18 -423 l 1xe0
EndSplineSet
Validated: 1
EndChar

StartChar: asciicircum
Encoding: 94 94 36
Width: 881
Flags: W
LayerCount: 2
Fore
SplineSet
353 1357 m 1
 524 1357 l 1
 836 593 l 1
 652 593 l 1
 440 1115 l 1
 229 593 l 1
 46 593 l 1
 353 1357 l 1
EndSplineSet
Validated: 1
EndChar

StartChar: underscore
Encoding: 95 95 37
Width: 1044
Flags: W
HStem: -356 144<-66 1111>
LayerCount: 2
Fore
SplineSet
1111 -212 m 1
 1111 -356 l 1
 -66 -356 l 1
 -66 -212 l 1
 1111 -212 l 1
EndSplineSet
Validated: 1
EndChar

StartChar: grave
Encoding: 96 96 38
Width: 417
Flags: W
HStem: 871 486
VStem: 97 225<871 1115.08> 97 136<1117 1230.04>
LayerCount: 2
Fore
SplineSet
322 871 m 1xc0
 97 871 l 1
 97 1086 l 2
 97 1244 166 1357 297 1357 c 2
 322 1357 l 1
 322 1239 l 1xc0
 300 1236 l 2
 268 1232 233 1214 233 1117 c 1xa0
 322 1117 l 1
 322 871 l 1xc0
EndSplineSet
Validated: 1
EndChar

StartChar: braceleft
Encoding: 123 123 39
Width: 627
Flags: W
HStem: -423 172<405.687 544> 398 176<55 158.925> 1223 172<405.687 544>
VStem: 202 195<-240.508 354.549 617.451 1212.51>
LayerCount: 2
Fore
SplineSet
55 574 m 1
 150 594 202 606 202 810 c 2
 202 1124 l 2
 202 1295 288 1395 432 1395 c 2
 544 1395 l 1
 544 1223 l 1
 490 1223 l 2
 414 1223 397 1207 397 1122 c 2
 397 782 l 2
 397 621 362 536 272 485 c 1
 357 427 397 333 397 190 c 2
 397 -150 l 2
 397 -235 414 -251 490 -251 c 2
 544 -251 l 1
 544 -423 l 1
 432 -423 l 2
 288 -423 202 -323 202 -152 c 2
 202 162 l 2
 202 366 149 378 55 398 c 1
 55 574 l 1
EndSplineSet
Validated: 1
EndChar

StartChar: bar
Encoding: 124 124 40
Width: 488
Flags: W
VStem: 163 163<-423 1395>
LayerCount: 2
Fore
SplineSet
163 1395 m 1
 326 1395 l 1
 326 -423 l 1
 163 -423 l 1
 163 1395 l 1
EndSplineSet
Validated: 1
EndChar

StartChar: braceright
Encoding: 125 125 41
Width: 627
Flags: W
HStem: -423 172<29 169.654> 398 176<416.775 519> 1223 172<29 169.654>
VStem: 180 194<-240.137 351.701 620.547 1212.14>
LayerCount: 2
Fore
SplineSet
519 398 m 1
 427 378 374 363 374 162 c 2
 374 -152 l 2
 374 -322 289 -423 143 -423 c 2
 29 -423 l 1
 29 -251 l 1
 85 -251 l 2
 163 -251 180 -234 180 -150 c 2
 180 190 l 2
 180 334 221 429 307 485 c 1
 221 543 180 639 180 782 c 2
 180 1122 l 2
 180 1206 163 1223 85 1223 c 2
 29 1223 l 1
 29 1395 l 1
 143 1395 l 2
 289 1395 374 1294 374 1124 c 2
 374 810 l 2
 374 609 427 594 519 574 c 1
 519 398 l 1
EndSplineSet
Validated: 1
EndChar

StartChar: asciitilde
Encoding: 126 126 42
Width: 1097
Flags: W
HStem: 479 177<650.127 821.923> 672 176<282.682 442.727>
VStem: 116 149<526 656.306> 830 149<664.785 797>
LayerCount: 2
Fore
SplineSet
340 672 m 0
 307 672 265 630 265 551 c 2
 265 526 l 1
 116 526 l 1
 116 551 l 2
 116 741 206 848 344 848 c 0
 383 848 423 835 458 815 c 2
 678 684 l 2
 718 660 743 656 759 656 c 0
 803 656 830 671 830 772 c 2
 830 797 l 1
 979 797 l 1
 979 742 l 2
 979 582 890 479 757 479 c 0
 691 479 627 509 592 531 c 1
 408 650 l 2
 394 658 356 672 340 672 c 0
EndSplineSet
Validated: 1
EndChar

StartChar: sheva
Encoding: 1456 1456 73
Width: 0
VWidth: 2273
GlyphClass: 4
Flags: W
HStem: -549 196<-82.7051 82.7051> -336 196<-82.7051 81.5766>
VStem: -99 198<-532.705 -368.672 -318.967 -156.999>
AnchorPoint: "M2V" -150 0 basemark 0
AnchorPoint: "N" -1 0 mark 0
LayerCount: 2
Fore
SplineSet
0 -549 m 0
 -57 -549 -99 -502 -99 -450 c 0
 -99 -393 -52 -353 0 -353 c 0
 57 -353 99 -398 99 -450 c 0
 99 -507 52 -549 0 -549 c 0
0 -336 m 0
 -57 -336 -99 -291 -99 -238 c 0
 -99 -180 -52 -140 0 -140 c 0
 59 -140 97 -187 97 -238 c 0
 97 -294 53 -336 0 -336 c 0
EndSplineSet
Validated: 1
MultipleSubs2: "meteg-tenua-stage2" sheva meteg
LCarets2: 1 0 
Ligature2: "meteg-tenua-stage1" meteg sheva
EndChar

StartChar: hatafsegol
Encoding: 1457 1457 74
Width: 0
VWidth: 2273
GlyphClass: 4
Flags: W
HStem: -551 198<-185.65 -23.5605 132.141 293.967> -339 197<-292.606 -133.012 -68.6125 87.8394 130.242 294.705>
VStem: -311 197<-319.491 -154.979> -203 197<-535.282 -369.611> -89 197<-317.705 -152.966> 114 197<-535.021 -372.98 -323.034 -158.295>
AnchorPoint: "M2V" -390 -2 basemark 0
AnchorPoint: "VR" -95 0 mark 0
AnchorPoint: "H" 0 0 mark 0
LayerCount: 2
Fore
SplineSet
213 -551 m 0xc4
 157 -551 114 -506 114 -453 c 0
 114 -395 163 -356 213 -356 c 0
 271 -356 311 -401 311 -453 c 0
 311 -510 266 -551 213 -551 c 0xc4
212 -339 m 0
 156 -339 114 -293 114 -241 c 0
 114 -184 161 -142 212 -142 c 0
 269 -142 311 -189 311 -241 c 0
 311 -299 264 -339 212 -339 c 0
9 -334 m 0
 -48 -334 -89 -287 -89 -235 c 0
 -89 -177 -42 -137 9 -137 c 0
 67 -137 108 -183 108 -235 c 0xcc
 108 -292 62 -334 9 -334 c 0
-104 -551 m 0
 -161 -551 -203 -506 -203 -453 c 0
 -203 -396 -157 -353 -104 -353 c 0
 -47 -353 -6 -401 -6 -453 c 0xd4
 -6 -511 -53 -551 -104 -551 c 0
-213 -336 m 0
 -272 -336 -311 -288 -311 -237 c 0
 -311 -180 -266 -139 -213 -139 c 0
 -156 -139 -114 -184 -114 -237 c 0xe4
 -114 -294 -161 -336 -213 -336 c 0
EndSplineSet
LCarets2: 1 0 
MultipleSubs2: "meteg-tenua-stage2" hatafsegol meteg
Ligature2: "meteg-tenua-stage1" meteg hatafsegol
EndChar

StartChar: hatafpatah
Encoding: 1458 1458 75
Width: 0
VWidth: 2273
GlyphClass: 4
Flags: W
HStem: -549 196<110.555 276.021> -336 196<109.672 273.705> -304 162<-292 53>
VStem: 94 198<-532.705 -370.244 -318.703 -157.278>
AnchorPoint: "M2V" -370 0 basemark 0
AnchorPoint: "VR" -95 0 mark 0
AnchorPoint: "H" 0 0 mark 0
LayerCount: 2
Fore
SplineSet
194 -549 m 0x90
 136 -549 94 -502 94 -450 c 0
 94 -393 142 -353 194 -353 c 0
 251 -353 292 -399 292 -450 c 0
 292 -507 247 -549 194 -549 c 0x90
191 -336 m 0xd0
 133 -336 94 -290 94 -238 c 0
 94 -181 139 -140 191 -140 c 0
 248 -140 290 -185 290 -238 c 0
 290 -296 243 -336 191 -336 c 0xd0
53 -142 m 1xb0
 53 -304 l 1
 -292 -304 l 1
 -292 -142 l 1
 53 -142 l 1xb0
EndSplineSet
Validated: 1
LCarets2: 1 0 
MultipleSubs2: "meteg-tenua-stage2" hatafpatah meteg
Ligature2: "meteg-tenua-stage1" meteg hatafpatah
EndChar

StartChar: hatafqamats
Encoding: 1459 1459 76
Width: 0
VWidth: 2273
GlyphClass: 4
Flags: W
HStem: -548 195<157.559 321.23> -336 197<157.189 319.494> -304 167<-338 -200 -34 89>
VStem: -200 166<-555 -304> 141 197<-531.23 -369.189 -318.387 -156.557>
AnchorPoint: "M2V" -418 0 basemark 0
AnchorPoint: "VR" -94.4701 -0.333333 mark 0
AnchorPoint: "H" 0 -0.333333 mark 0
LayerCount: 2
Fore
SplineSet
141 -450 m 0x98
 141 -392 188 -353 240 -353 c 0
 295 -353 338 -395 338 -450 c 0
 338 -504 294 -548 240 -548 c 0
 184 -548 141 -504 141 -450 c 0x98
141 -237 m 0
 141 -181 183 -139 238 -139 c 0
 293 -139 336 -182 336 -237 c 0
 336 -292 294 -336 238 -336 c 0xd8
 180 -336 141 -289 141 -237 c 0
-338 -137 m 1xb8
 89 -137 l 1
 89 -304 l 1
 -34 -304 l 1
 -34 -555 l 1
 -200 -555 l 1
 -200 -304 l 1
 -338 -304 l 1
 -338 -137 l 1xb8
EndSplineSet
Validated: 1
LCarets2: 1 0 
MultipleSubs2: "meteg-tenua-stage2" hatafqamats meteg
Ligature2: "meteg-tenua-stage1" meteg hatafqamats
EndChar

StartChar: hiriq
Encoding: 1460 1460 77
Width: 0
VWidth: 2273
GlyphClass: 4
Flags: W
HStem: -337 197<-82.9688 82.9688>
VStem: -99 198<-321.021 -156.295>
AnchorPoint: "VR" -95 0 mark 0
AnchorPoint: "M2V" -179 0 basemark 0
AnchorPoint: "J1" 286 0 mark 0
AnchorPoint: "N" 0 0.333336 mark 0
LayerCount: 2
Fore
SplineSet
0 -337 m 0
 -58 -337 -99 -291 -99 -239 c 0
 -99 -182 -53 -140 0 -140 c 0
 58 -140 99 -187 99 -239 c 0
 99 -296 53 -337 0 -337 c 0
EndSplineSet
Validated: 1
LCarets2: 1 0 
MultipleSubs2: "meteg-tenua-stage2" hiriq meteg
Ligature2: "meteg-tenua-stage1" meteg hiriq
EndChar

StartChar: tsere
Encoding: 1461 1461 78
Width: 0
VWidth: 2273
GlyphClass: 4
Flags: W
HStem: -337 196<-205.705 -40.2949 41.2422 205.705>
VStem: -222 198<-321.282 -156.718> 25 197<-321.034 -156.295>
AnchorPoint: "VR" -95 0 mark 0
AnchorPoint: "M2V" -302 0 basemark 0
AnchorPoint: "W" 0 0 mark 0
LayerCount: 2
Fore
SplineSet
123 -337 m 0
 67 -337 25 -291 25 -239 c 0
 25 -182 72 -140 123 -140 c 0
 180 -140 222 -187 222 -239 c 0
 222 -297 175 -337 123 -337 c 0
-123 -337 m 0
 -180 -337 -222 -292 -222 -239 c 0
 -222 -181 -175 -141 -123 -141 c 0
 -66 -141 -24 -186 -24 -239 c 0
 -24 -297 -71 -337 -123 -337 c 0
EndSplineSet
Validated: 1
LCarets2: 1 0 
MultipleSubs2: "meteg-tenua-stage2" tsere meteg
Ligature2: "meteg-tenua-stage1" meteg tsere
EndChar

StartChar: segol
Encoding: 1462 1462 79
Width: 0
VWidth: 2273
GlyphClass: 4
Flags: W
HStem: -551 198<-80.5469 84.0723> -336 197<-208.786 -43.3477 43.5555 208.758>
VStem: -225 198<-318.662 -154.718> -97 198<-533.123 -370.896> 27 198<-319.705 -156.297>
AnchorPoint: "VR" -95 0 mark 0
AnchorPoint: "M2V" -305 0 basemark 0
AnchorPoint: "W" 0 0 mark 0
LayerCount: 2
Fore
SplineSet
127 -336 m 0xc8
 69 -336 27 -289 27 -237 c 0
 27 -179 75 -139 127 -139 c 0
 183 -139 225 -185 225 -237 c 0
 225 -294 178 -336 127 -336 c 0xc8
0 -551 m 0
 -59 -551 -97 -503 -97 -452 c 0
 -97 -396 -54 -353 0 -353 c 0
 57 -353 101 -399 101 -452 c 0xd0
 101 -510 52 -551 0 -551 c 0
-127 -336 m 0
 -184 -336 -225 -289 -225 -237 c 0
 -225 -179 -178 -139 -127 -139 c 0
 -69 -139 -27 -184 -27 -237 c 0xe0
 -27 -295 -74 -336 -127 -336 c 0
EndSplineSet
Validated: 1
LCarets2: 1 0 
MultipleSubs2: "meteg-tenua-stage2" segol meteg
Ligature2: "meteg-tenua-stage1" meteg segol
EndChar

StartChar: patah
Encoding: 1463 1463 80
Width: 0
VWidth: 2273
GlyphClass: 4
Flags: W
HStem: -304 164<-194 194>
VStem: -194 388<-304 -140>
AnchorPoint: "VR" -95 0 mark 0
AnchorPoint: "M2V" -274 0 basemark 0
AnchorPoint: "W" 0 0 mark 0
LayerCount: 2
Fore
SplineSet
194 -140 m 1
 194 -304 l 1
 -194 -304 l 1
 -194 -140 l 1
 194 -140 l 1
EndSplineSet
Validated: 1
LCarets2: 1 0 
MultipleSubs2: "meteg-tenua-stage2" patah meteg
Ligature2: "meteg-tenua-stage1" meteg patah
EndChar

StartChar: qamats
Encoding: 1464 1464 81
Width: 0
VWidth: 2273
GlyphClass: 4
Flags: W
HStem: -304 164<-214 -74 93 214>
VStem: -74 167<-554 -304>
AnchorPoint: "VR" -95 0 mark 0
AnchorPoint: "M2V" -294 0 basemark 0
AnchorPoint: "W" 0 0 mark 0
LayerCount: 2
Fore
SplineSet
-214 -304 m 1
 -214 -140 l 1
 214 -140 l 1
 214 -304 l 1
 93 -304 l 1
 93 -554 l 1
 -74 -554 l 1
 -74 -304 l 1
 -214 -304 l 1
EndSplineSet
Validated: 1
LCarets2: 1 0 
MultipleSubs2: "meteg-tenua-stage2" qamats meteg
Ligature2: "meteg-tenua-stage1" meteg qamats
EndChar

StartChar: holam
Encoding: 1465 1465 82
Width: 0
VWidth: 2273
GlyphClass: 4
Flags: W
HStem: 1284 197<-82.9688 82.9688>
VStem: -99 198<1299.98 1464.71>
AnchorPoint: "Holam" 0 0 mark 0
LayerCount: 2
Fore
SplineSet
0 1284 m 0
 -58 1284 -99 1330 -99 1382 c 0
 -99 1439 -53 1481 0 1481 c 0
 58 1481 99 1434 99 1382 c 0
 99 1325 53 1284 0 1284 c 0
EndSplineSet
Validated: 1
EndChar

StartChar: qubuts
Encoding: 1467 1467 83
Width: 0
VWidth: 2273
GlyphClass: 4
Flags: W
HStem: -571 176<54.1531 207.039> -433 176<-75.1201 77.7656> -292 177<-196.211 -41.1124>
VStem: -208 179<-279.079 -127.647> -88 179<-420.626 -270.153> 41 179<-558.039 -407.333>
AnchorPoint: "M2V" -288 0 basemark 0
AnchorPoint: "VR" -95 0 mark 0
AnchorPoint: "W" -143 0 mark 0
LayerCount: 2
Fore
SplineSet
41 -481 m 0x84
 41 -433 82 -395 130 -395 c 0
 180 -395 220 -433 220 -481 c 0
 220 -531 180 -571 130 -571 c 0
 82 -571 41 -531 41 -481 c 0x84
-88 -346 m 0x48
 -88 -298 -48 -257 0 -257 c 0
 50 -257 91 -298 91 -346 c 0
 91 -395 50 -433 0 -433 c 0
 -48 -433 -88 -395 -88 -346 c 0x48
-208 -203 m 0x30
 -208 -154 -168 -115 -120 -115 c 0
 -70 -115 -29 -154 -29 -203 c 0
 -29 -252 -70 -292 -120 -292 c 0
 -168 -292 -208 -252 -208 -203 c 0x30
EndSplineSet
Validated: 1
LCarets2: 1 0 
MultipleSubs2: "meteg-tenua-stage2" qubuts meteg
Ligature2: "meteg-tenua-stage1" meteg qubuts
EndChar

StartChar: dagesh
Encoding: 1468 1468 84
Width: 0
VWidth: 2273
GlyphClass: 4
Flags: W
HStem: 462 196<-82.4414 82.491>
VStem: -99 198<478.717 641.705>
AnchorPoint: "D" 0 0 mark 0
LayerCount: 2
Fore
SplineSet
0 462 m 0
 -56 462 -99 506 -99 559 c 0
 -99 616 -52 658 0 658 c 0
 57 658 99 611 99 559 c 0
 99 501 51 462 0 462 c 0
EndSplineSet
Validated: 1
EndChar

StartChar: meteg
Encoding: 1469 1469 85
Width: 0
VWidth: 2273
GlyphClass: 4
Flags: W
HStem: -534 399<-74 74>
VStem: -74 148<-534 -135>
AnchorPoint: "M1" 0 0 mark 0
AnchorPoint: "M2V" 75 0 mark 0
AnchorPoint: "N" 0 0 mark 0
LayerCount: 2
Fore
SplineSet
74 -135 m 1
 74 -534 l 1
 -74 -534 l 1
 -74 -135 l 1
 74 -135 l 1
EndSplineSet
Ligature2: "'ccmp' Remove empty near meteg" empty meteg
Ligature2: "'ccmp' Remove empty near meteg" meteg empty
LCarets2: 1 0 
EndChar

StartChar: makaf
Encoding: 1470 1470 86
Width: 818
VWidth: 2273
Flags: W
HStem: 797 259<122 700>
VStem: 122 578<797 1056>
LayerCount: 2
Fore
SplineSet
700 1056 m 1
 700 797 l 1
 122 797 l 1
 122 1056 l 1
 700 1056 l 1
EndSplineSet
Validated: 1
EndChar

StartChar: rafe
Encoding: 1471 1471 87
Width: 0
VWidth: 2273
GlyphClass: 4
Flags: W
HStem: 1337 201<-246 246>
VStem: -246 492<1337 1538>
AnchorPoint: "R" 0 0 mark 0
LayerCount: 2
Fore
SplineSet
246 1538 m 1
 246 1337 l 1
 -246 1337 l 1
 -246 1538 l 1
 246 1538 l 1
EndSplineSet
Validated: 1
Substitution2: "'salt' Stylistic Alternatives lookup-1" varika
EndChar

StartChar: paseq
Encoding: 1472 1472 88
Width: 481
VWidth: 2516
Flags: W
VStem: 140 218<47 1119>
LayerCount: 2
Fore
SplineSet
140 47 m 1
 140 1119 l 1
 358 1119 l 1
 358 47 l 1
 140 47 l 1
EndSplineSet
Validated: 1
EndChar

StartChar: shindot
Encoding: 1473 1473 89
Width: 0
VWidth: 2273
GlyphClass: 4
Flags: W
HStem: 1225 197<-82.9688 82.9688>
VStem: -99 198<1240.98 1405.71>
LayerCount: 2
Fore
SplineSet
0 1225 m 0
 -58 1225 -99 1271 -99 1323 c 0
 -99 1380 -53 1422 0 1422 c 0
 58 1422 99 1375 99 1323 c 0
 99 1266 53 1225 0 1225 c 0
EndSplineSet
Validated: 1
EndChar

StartChar: sindot
Encoding: 1474 1474 90
Width: 0
VWidth: 2273
GlyphClass: 4
Flags: W
HStem: 1225 197<-82.9688 82.9688>
VStem: -99 198<1240.98 1405.71>
LayerCount: 2
Fore
SplineSet
0 1225 m 0
 -58 1225 -99 1271 -99 1323 c 0
 -99 1380 -53 1422 0 1422 c 0
 58 1422 99 1375 99 1323 c 0
 99 1266 53 1225 0 1225 c 0
EndSplineSet
Validated: 1
EndChar

StartChar: sofpasuq
Encoding: 1475 1475 91
Width: 554
VWidth: 2273
Flags: W
HStem: 45 334<172.118 389.645> 744 334<171.205 390.098>
VStem: 117 327<98.4643 324.442 798.161 1024.54>
LayerCount: 2
Fore
SplineSet
280 744 m 0
 187 744 117 822 117 912 c 0
 117 1006 192 1078 280 1078 c 0
 373 1078 445 1001 445 912 c 0
 445 817 369 744 280 744 c 0
280 45 m 0
 187 45 117 122 117 211 c 0
 117 305 192 379 280 379 c 0
 374 379 444 301 444 211 c 0
 444 117 369 45 280 45 c 0
EndSplineSet
Validated: 1
EndChar

StartChar: alef
Encoding: 1488 1488 93
Width: 1368
VWidth: 2273
Flags: W
HStem: 0 21G<122 470 945 1319> 1080 20G<82 516 901.5 1218>
VStem: 122 249<230 401.327> 849 370<878.152 1078.09> 938 281<703.042 870>
AnchorPoint: "R" 650 0 basechar 0
AnchorPoint: "VR" 758 0 basechar 0
AnchorPoint: "Holam" -17 0 basechar 0
AnchorPoint: "N" 685 0 basechar 0
AnchorPoint: "W" 696 0 basechar 0
AnchorPoint: "H" 737 0 basechar 0
LayerCount: 2
Fore
SplineSet
561 619 m 1xf0
 453 535 371 369 371 230 c 1
 440 230 l 1
 447 216 l 2
 465 178 472 112 472 60 c 0
 472 40 471 19 469 0 c 2
 466 0 l 1
 122 0 l 1
 122 496 256 645 407 763 c 1
 314 872 232 961 125 1064 c 2
 82 1100 l 1
 434 1100 l 1
 442 1100 l 2
 590 951 733 794 867 625 c 1
 922 665 938 744 938 858 c 2
 938 870 l 1xe8
 849 870 l 1
 849 895 l 2
 849 1012 896 1085 907 1100 c 2
 915 1100 l 1
 1218 1100 l 1
 1218 1067 1219 1028 1219 988 c 0
 1219 829 1199 624 1006 478 c 1
 1117 334 1219 189 1300 36 c 2
 1319 0 l 1
 1021 0 l 1
 1013 0 l 2
 877 227 714 446 561 619 c 1xf0
EndSplineSet
Validated: 1
Substitution2: "'jalt' Justification Alternatives lookup -1" alef.wide
EndChar

StartChar: bet
Encoding: 1489 1489 94
Width: 1151
VWidth: 2273
Flags: W
HStem: 0 230<149 716 979 1060.89> 870 230<204.701 651.645>
VStem: 716 263<230 809.895>
AnchorPoint: "R" 500 0 basechar 0
AnchorPoint: "VR" 601 0 basechar 0
AnchorPoint: "Holam" 77 0 basechar 0
AnchorPoint: "H" 590 0 basechar 0
AnchorPoint: "W" 580 0 basechar 0
AnchorPoint: "N" 540 0 basechar 0
LayerCount: 2
Fore
SplineSet
236 1100 m 1
 530 1100 l 2
 746 1100 979 973 979 762 c 2
 979 230 l 1
 1096 230 l 1
 1096 205 l 2
 1096 164 1088 99 1042 0 c 2
 1036 0 l 1
 75 0 l 1
 75 87 108 162 141 219 c 2
 149 230 l 1
 716 230 l 1
 716 678 l 2
 716 812 635 870 523 870 c 2
 173 870 l 1
 173 895 l 2
 173 954 183 1027 228 1100 c 2
 236 1100 l 1
EndSplineSet
Validated: 1
EndChar

StartChar: gimel
Encoding: 1490 1490 95
Width: 901
VWidth: 2273
Flags: W
HStem: 0 21G<567 837> 870 230<188.449 494.992>
VStem: 507 264<85.2031 287 530.498 851.378>
AnchorPoint: "VR" 492 0 basechar 0
AnchorPoint: "Holam" 117 0 basechar 0
AnchorPoint: "R" 450 0 basechar 0
AnchorPoint: "H" 450 0 basechar 0
AnchorPoint: "W" 444 0 basechar 0
AnchorPoint: "N" 408 0 basechar 0
LayerCount: 2
Fore
SplineSet
152 895 m 2
 152 1018 203 1083 215 1100 c 1
 422 1100 l 2
 624 1100 771 1020 771 803 c 2
 771 201 l 1
 783 135 800 78 821 34 c 2
 837 0 l 1
 572 0 l 1
 567 20 l 2
 547 106 519 196 519 287 c 1
 393 133 228 12 120 -75 c 2
 79 -108 l 1
 79 -56 l 2
 79 47 88 145 153 236 c 1
 295 351 428 469 507 585 c 1
 507 790 l 2
 507 858 454 870 384 870 c 2
 152 870 l 1
 152 895 l 2
EndSplineSet
Validated: 1
EndChar

StartChar: dalet
Encoding: 1491 1491 96
Width: 1178
VWidth: 2273
Flags: W
HStem: 0 21G<650 947> 870 230<110.207 650 947 1045.01>
VStem: 83 987<873.406 1089.16> 650 297<0 870>
AnchorPoint: "VR" 812 0 basechar 0
AnchorPoint: "Holam" 43 0 basechar 0
AnchorPoint: "R" 542 0 basechar 0
AnchorPoint: "H" 737 0 basechar 0
AnchorPoint: "W" 771 0 basechar 0
AnchorPoint: "N" 780 0 basechar 0
LayerCount: 2
Fore
SplineSet
1070 1075 m 2xe0
 1070 952 1043 906 1024 870 c 1
 947 870 l 1
 947 0 l 1
 650 0 l 1
 650 870 l 1xd0
 95 870 l 1
 90 892 83 916 83 941 c 0
 83 1005 107 1054 134 1100 c 1
 1070 1100 l 1
 1070 1075 l 2xe0
EndSplineSet
Validated: 1
Substitution2: "'jalt' Justification Alternatives lookup -1" daled.wide
EndChar

StartChar: he
Encoding: 1492 1492 97
Width: 1322
VWidth: 2273
Flags: W
HStem: 0 21G<165 406 953 1218> 870 230<159.11 856.332>
VStem: 165 241<0 661.9> 953 265<0 780.995>
AnchorPoint: "R" 596 0 basechar 0
AnchorPoint: "VR" 710 0 basechar 0
AnchorPoint: "Holam" 91 0 basechar 0
AnchorPoint: "H" 724 0 basechar 0
AnchorPoint: "W" 670 0 basechar 0
AnchorPoint: "N" 643 0 basechar 0
LayerCount: 2
Fore
SplineSet
131 936 m 0
 131 1002 153 1050 184 1100 c 1
 700 1100 l 2
 969 1100 1090 1037 1163 907 c 1
 1210 836 1218 765 1218 576 c 2
 1218 0 l 1
 953 0 l 1
 953 638 l 2
 953 781 855 870 711 870 c 2
 138 870 l 1
 134 891 l 2
 132 907 131 923 131 936 c 0
406 0 m 1
 165 0 l 1
 165 719 l 1
 193 716 l 2
 285 706 346 676 406 635 c 1
 406 0 l 1
EndSplineSet
Validated: 1
Substitution2: "'jalt' Justification Alternatives lookup -1" he.wide
EndChar

StartChar: vav
Encoding: 1493 1493 98
Width: 609
VWidth: 2273
Flags: W
HStem: 0 21G<210 466> 1080 20G<132 466>
VStem: 97 369<870 1076.69> 210 256<0 870>
AnchorPoint: "D" 70 0 basechar 0
AnchorPoint: "Holam_Haser_on_Vav" 57 0 basechar 0
AnchorPoint: "VR" 314 0 basechar 0
AnchorPoint: "N" 318 -4 basechar 0
AnchorPoint: "W" 328 0 basechar 0
AnchorPoint: "H" 277 0 basechar 0
LayerCount: 2
Fore
SplineSet
97 914 m 2xe0
 97 989 107 1025 157 1100 c 1
 466 1100 l 1
 466 0 l 1
 210 0 l 1
 210 870 l 1xd0
 97 870 l 1
 97 914 l 2xe0
EndSplineSet
Validated: 1
EndChar

StartChar: zain
Encoding: 1494 1494 99
Width: 908
VWidth: 2273
Flags: W
HStem: 0 21G<233 491> 871 230<123.082 353 580.955 727.251>
VStem: 233 258<0 761.752>
AnchorPoint: "VR" 430 0 basechar 0
AnchorPoint: "Holam" 36 0 basechar 0
AnchorPoint: "N" 350 0 basechar 0
AnchorPoint: "W" 348 0 basechar 0
AnchorPoint: "H" 333 4 basechar 0
LayerCount: 2
Fore
SplineSet
682 875 m 1
 572 875 491 713 491 652 c 2
 491 0 l 1
 233 0 l 1
 233 536 l 2
 233 677 266 779 353 871 c 1
 89 871 l 1
 89 896 l 2
 89 906 87 915 87 928 c 0
 87 997 120 1056 149 1101 c 2
 157 1101 l 1
 790 1101 l 1
 794 1101 l 2
 798 1085 801 1068 801 1045 c 0
 801 992 783 931 740 879 c 2
 728 866 l 1
 712 875 698 879 682 875 c 1
EndSplineSet
Validated: 1
EndChar

StartChar: het
Encoding: 1495 1495 100
Width: 1378
VWidth: 2273
Flags: W
HStem: 0 21G<190 456 1004 1270> 870 230<135.151 190 456 927.944>
VStem: 190 266<0 870> 1004 266<0 792.62>
AnchorPoint: "VR" 765 0 basechar 0
AnchorPoint: "Holam" 66 0 basechar 0
AnchorPoint: "N" 701 0 basechar 0
AnchorPoint: "W" 730 7 basechar 0
AnchorPoint: "H" 730 0 basechar 0
LayerCount: 2
Fore
SplineSet
106 895 m 2
 106 1018 136 1063 162 1100 c 1
 924 1100 l 2
 1079 1100 1270 913 1270 780 c 2
 1270 0 l 1
 1004 0 l 1
 1004 710 l 2
 1004 777 892 870 838 870 c 2
 456 870 l 1
 456 0 l 1
 190 0 l 1
 190 870 l 1
 106 870 l 1
 106 895 l 2
EndSplineSet
Validated: 1
EndChar

StartChar: tet
Encoding: 1496 1496 101
Width: 1400
VWidth: 2273
Flags: W
HStem: -36 159<590.354 917.978> 846 217<634.003 762.642> 901 214<702.301 970.776> 1080 20G<151.5 460>
VStem: 101 359<879 1073.2> 189 271<242.435 879> 1083 260<298.261 765.524>
AnchorPoint: "VR" 799 0 basechar 0
AnchorPoint: "Holam" 61 0 basechar 0
AnchorPoint: "N" 700 0 basechar 0
AnchorPoint: "W" 737 0 basechar 0
AnchorPoint: "H" 720 0 basechar 0
LayerCount: 2
Fore
SplineSet
667 846 m 1xc6
 633 854 628 885 628 918 c 0
 628 931 629 945 629 957 c 0
 629 1026 641 1045 651 1063 c 1xc6
 745 1104 824 1115 907 1115 c 0
 1253 1115 1343 828 1343 541 c 0
 1343 212 1146 -36 722 -36 c 0
 401 -36 189 152 189 390 c 2
 189 879 l 1xa6
 101 879 l 1
 101 901 l 2xaa
 101 1019 138 1066 165 1100 c 1
 460 1100 l 1x96
 460 359 l 2
 460 204 622 135 736 123 c 1
 959 123 1083 272 1083 506 c 0
 1083 764 1008 901 829 901 c 0xa6
 731 901 711 846 671 846 c 2
 667 846 l 1xc6
EndSplineSet
Validated: 1
EndChar

StartChar: yod
Encoding: 1497 1497 102
Width: 590
VWidth: 2273
Flags: W
HStem: 430 670
VStem: 110 347<870 1060.4> 193 264<564 870>
AnchorPoint: "VR" 317 0 basechar 0
AnchorPoint: "Holam" 70 0 basechar 0
AnchorPoint: "N" 325 0 basechar 0
AnchorPoint: "W" 280 0 basechar 0
AnchorPoint: "H" 279 0 basechar 0
LayerCount: 2
Fore
SplineSet
110 895 m 2xc0
 110 1018 165 1078 185 1100 c 1
 457 1100 l 1
 457 564 l 1
 193 430 l 1
 193 870 l 1xa0
 110 870 l 1
 110 895 l 2xc0
EndSplineSet
Validated: 1
EndChar

StartChar: finalkaf
Encoding: 1498 1498 103
Width: 1139
VWidth: 2273
Flags: W
HStem: 871 230<122.708 715.673>
VStem: 781 255<-429 806.735>
AnchorPoint: "VR" 300 0 basechar 0
AnchorPoint: "Holam" 38 0 basechar 0
AnchorPoint: "N" 495 -5 basechar 0
AnchorPoint: "W" 345 0 basechar 0
AnchorPoint: "H" 380 -5 basechar 0
LayerCount: 2
Fore
SplineSet
577 871 m 2
 85 871 l 1
 85 896 l 2
 85 961 97 1040 154 1101 c 2
 161 1101 l 1
 664 1101 l 2
 848 1101 1035 914 1035 715 c 0
 1035 600 1036 -200 1036 -429 c 1
 1011 -454 l 1
 781 -454 l 1
 781 698 l 2
 781 777 717 871 577 871 c 2
EndSplineSet
Validated: 1
EndChar

StartChar: kaf
Encoding: 1499 1499 104
Width: 1177
VWidth: 2273
Flags: W
HStem: 0 230<161.375 695.039> 870 230<159.136 717.749>
VStem: 866 262<399.17 731.513>
AnchorPoint: "R" 500 0 basechar 0
AnchorPoint: "VR" 635 0 basechar 0
AnchorPoint: "Holam" 85 0 basechar 0
AnchorPoint: "N" 521 0 basechar 0
AnchorPoint: "W" 466 0 basechar 0
AnchorPoint: "H" 500 0 basechar 0
LayerCount: 2
Fore
SplineSet
125 942 m 0
 125 1005 152 1050 189 1100 c 1
 619 1100 l 2
 859 1100 1128 905 1128 549 c 0
 1128 178 873 0 591 0 c 2
 125 0 l 1
 125 25 l 2
 125 32 122 44 122 57 c 0
 122 126 151 178 194 230 c 1
 586 230 l 1
 731 255 866 381 866 554 c 1
 866 788 699 870 532 870 c 2
 134 870 l 1
 130 889 125 902 125 942 c 0
EndSplineSet
Validated: 1
Substitution2: "'jalt' Justification Alternatives lookup -1" khaf.wide
EndChar

StartChar: lamed
Encoding: 1500 1500 105
Width: 1195
VWidth: 2273
Flags: W
HStem: 0 21G<389 684.056> 870 230<381 771>
VStem: 14 367<1326 1517.26> 120 261<1100 1326>
AnchorPoint: "J1" 32 0 basechar 0
AnchorPoint: "VR" 601 0 basechar 0
AnchorPoint: "Holam" -41 -161 basechar 0
AnchorPoint: "N" 508 0 basechar 0
AnchorPoint: "W" 480 0 basechar 0
AnchorPoint: "H" 495 0 basechar 0
LayerCount: 2
Fore
SplineSet
389 0 m 1xd0
 771 870 l 1
 120 870 l 1
 120 1326 l 1xd0
 14 1326 l 1
 14 1351 l 2xe0
 14 1438 30 1497 84 1546 c 2
 91 1553 l 1
 381 1553 l 1
 381 1100 l 1
 1073 1100 l 1
 1073 879 l 1
 675 0 l 1
 389 0 l 1xd0
EndSplineSet
Validated: 1
Substitution2: "'jalt' Justification Alternatives lookup -1" lamed.wide
EndChar

StartChar: finalmem
Encoding: 1501 1501 106
Width: 1349
VWidth: 2273
Flags: W
HStem: 0 230<434 971> 870 230<434 922.517>
VStem: 158 276<230 870> 971 270<230 826.203>
AnchorPoint: "VR" 751 0 basechar 0
AnchorPoint: "Holam" 118 0 basechar 0
AnchorPoint: "N" 647 0 basechar 0
AnchorPoint: "W" 700 0 basechar 0
AnchorPoint: "H" 700 0 basechar 0
LayerCount: 2
Fore
SplineSet
971 230 m 1
 971 692 l 2
 971 835 899 870 803 870 c 2
 434 870 l 1
 434 230 l 1
 971 230 l 1
158 1100 m 1
 850 1100 l 2
 1180 1100 1241 857 1241 694 c 2
 1241 0 l 1
 158 0 l 1
 158 1100 l 1
EndSplineSet
Validated: 1
Substitution2: "'jalt' Justification Alternatives lookup -1" finalmem.wide
EndChar

StartChar: mem
Encoding: 1502 1502 107
Width: 1410
VWidth: 2273
Flags: W
HStem: -30 258<672.89 951.725> 0 21G<146 456.5> 866 235<658.094 974.362>
VStem: 146 267<0 134.376> 1103 257<375.213 732.537>
AnchorPoint: "VR" 819 0 basechar 0
AnchorPoint: "Holam" 54 0 basechar 0
AnchorPoint: "N" 770 0 basechar 0
AnchorPoint: "W" 700 0 basechar 0
AnchorPoint: "H" 700 0 basechar 0
LayerCount: 2
Fore
SplineSet
802 866 m 0xb8
 463 866 500 328 413 0 c 1
 146 0 l 1x78
 221 703 l 1
 94 1080 l 1
 117 1088 l 2
 160 1102 197 1108 229 1108 c 0
 285 1108 326 1095 369 1085 c 1
 444 886 l 1
 510 997 629 1101 810 1101 c 0
 1193 1101 1360 840 1360 536 c 0
 1360 132 1126 -30 779 -30 c 0
 705 -30 643 -9 584 9 c 1
 576 36 571 55 571 98 c 0
 571 168 595 226 619 277 c 2
 638 317 l 1
 666 281 l 2
 697 240 707 228 761 228 c 0
 990 228 1103 364 1103 542 c 0
 1103 726 1020 866 802 866 c 0xb8
EndSplineSet
Validated: 1
EndChar

StartChar: finalnun
Encoding: 1503 1503 108
Width: 601
VWidth: 2273
Flags: W
HStem: 1080 20G<131 458>
VStem: 97 361<870 1075.24> 203 255<-455 870>
AnchorPoint: "Holam" 53 0 basechar 0
AnchorPoint: "N" 25 0 basechar 0
AnchorPoint: "W" -180 0 basechar 0
AnchorPoint: "H" -227 0 basechar 0
LayerCount: 2
Fore
SplineSet
458 -455 m 1xa0
 203 -455 l 1
 203 870 l 1xa0
 97 870 l 1
 97 920 l 1xc0
 105 967 104 1034 158 1100 c 1
 458 1100 l 1
 458 -455 l 1xa0
EndSplineSet
Validated: 1
EndChar

StartChar: nun
Encoding: 1504 1504 109
Width: 823
VWidth: 2273
Flags: W
HStem: 0 230<122.27 438> 870 230<199.195 435.147>
VStem: 438 256<230 869.411>
AnchorPoint: "VR" 485 0 basechar 0
AnchorPoint: "Holam" 108 0 basechar 0
AnchorPoint: "N" 428 0 basechar 0
AnchorPoint: "W" 395 0 basechar 0
AnchorPoint: "H" 377 0 basechar 0
LayerCount: 2
Fore
SplineSet
151 895 m 2
 151 977 183 1039 229 1100 c 1
 438 1100 l 2
 575 1100 694 1024 694 825 c 2
 694 0 l 1
 83 0 l 1
 83 25 l 2
 83 29 80 42 80 53 c 0
 80 130 116 184 156 230 c 1
 438 230 l 1
 438 788 l 2
 438 865 414 870 380 870 c 0
 374 870 369 870 363 870 c 2
 151 870 l 1
 151 895 l 2
EndSplineSet
Validated: 1
EndChar

StartChar: samekh
Encoding: 1505 1505 110
Width: 1348
VWidth: 2273
Flags: W
HStem: -33 230<549.825 879.222> 870 230<425 908.251>
VStem: 152 273<312.316 826> 1032 264<352.803 738.05>
AnchorPoint: "VR" 758 0 basechar 0
AnchorPoint: "Holam" 92 0 basechar 0
AnchorPoint: "N" 700 0 basechar 0
AnchorPoint: "W" 700 0 basechar 0
AnchorPoint: "H" 700 0 basechar 0
LayerCount: 2
Fore
SplineSet
762 870 m 2
 425 870 l 1
 425 425 l 2
 425 342 524 197 708 197 c 0
 921 197 1032 351 1032 539 c 0
 1032 786 893 870 762 870 c 2
121 899 m 2
 141 1026 197 1078 220 1100 c 1
 796 1100 l 2
 1070 1100 1296 937 1296 536 c 0
 1296 178 1089 -33 694 -33 c 0
 276 -33 152 267 152 420 c 2
 152 826 l 1
 187 870 l 1
 117 870 l 1
 121 899 l 2
EndSplineSet
Validated: 1
EndChar

StartChar: ayin
Encoding: 1506 1506 111
Width: 1337
VWidth: 2273
Flags: W
HStem: 870 230<123.044 217 873.897 952>
VStem: 838 376<871.704 1068.31> 952 262<390.207 870>
AnchorPoint: "D" 750 0 basechar 0
AnchorPoint: "VR" 819 0 basechar 0
AnchorPoint: "Holam" 60 0 basechar 0
AnchorPoint: "N" 650 0 basechar 0
AnchorPoint: "W" 670 0 basechar 0
AnchorPoint: "H" 750 0 basechar 0
LayerCount: 2
Fore
SplineSet
838 910 m 0xc0
 838 976 854 1067 921 1100 c 1
 1214 1100 l 1
 1214 610 l 2
 1214 311 1058 152 962 100 c 1
 77 -253 l 1
 71 -223 l 2
 66 -202 64 -184 64 -166 c 0
 64 -81 97 0 169 63 c 1
 427 149 l 1
 217 870 l 1
 105 870 l 1
 96 896 96 897 96 915 c 0
 96 1050 144 1088 158 1100 c 1
 441 1100 l 1
 694 220 l 1
 780 260 952 362 952 512 c 2
 952 870 l 1xa0
 848 870 l 1
 828 907 838 902 838 910 c 0xc0
EndSplineSet
Validated: 1
Substitution2: "'salt' Stylistic Alternatives lookup-1" ayin.alt
Substitution2: "Alternate Ayin Substitution Table" ayin.alt
EndChar

StartChar: finalpe
Encoding: 1507 1507 112
Width: 1293
VWidth: 2273
Flags: W
HStem: 416 208<412.792 603.603> 870 230<405 866.882>
VStem: 145 260<633.948 870> 922 260<-455 814.878>
AnchorPoint: "VR" 416 0 basechar 0
AnchorPoint: "Holam" 105 0 basechar 0
AnchorPoint: "H" 458 1 basechar 0
AnchorPoint: "W" 480 1 basechar 0
AnchorPoint: "N" 680 1 basechar 0
LayerCount: 2
Fore
SplineSet
145 668 m 2
 145 1100 l 1
 803 1100 l 2
 1039 1100 1182 944 1182 712 c 2
 1182 -455 l 1
 922 -455 l 1
 922 705 l 2
 922 820 836 870 736 870 c 2
 405 870 l 1
 405 702 l 2
 405 643 442 624 501 624 c 0
 525 624 550 628 577 635 c 2
 600 641 l 1
 610 621 l 2
 622 595 628 547 628 528 c 0
 628 493 617 467 610 441 c 1
 558 426 511 416 447 416 c 0
 276 416 145 519 145 668 c 2
EndSplineSet
Validated: 1
EndChar

StartChar: pe
Encoding: 1508 1508 113
Width: 1299
VWidth: 2273
Flags: W
HStem: 0 230<179.662 838.796> 428 211<426.805 603.617> 870 230<416 899.095>
VStem: 151 265<644.15 870> 985 260<388.312 775.436>
AnchorPoint: "R" 578 0 basechar 0
AnchorPoint: "VR" 662 0 basechar 0
AnchorPoint: "Holam" 111 0 basechar 0
AnchorPoint: "H" 628 0 basechar 0
AnchorPoint: "W" 617 0 basechar 0
AnchorPoint: "N" 600 0 basechar 0
LayerCount: 2
Fore
SplineSet
447 428 m 0
 318 428 198 480 151 649 c 1
 151 1100 l 1
 841 1100 l 2
 1166 1100 1245 780 1245 567 c 0
 1245 298 1046 0 761 0 c 2
 151 0 l 1
 151 25 l 2
 151 158 184 199 209 230 c 1
 730 230 l 2
 838 230 985 365 985 573 c 0
 985 748 918 870 785 870 c 2
 416 870 l 1
 416 702 l 1
 439 644 463 639 495 639 c 0
 516 639 548 651 602 651 c 1
 614 627 630 572 630 533 c 0
 630 498 619 471 610 447 c 1
 562 437 512 428 447 428 c 0
EndSplineSet
Validated: 1
EndChar

StartChar: finaltsadi
Encoding: 1509 1509 114
Width: 1268
VWidth: 2273
Flags: W
HStem: 870 230<102.459 254.274 811.88 926>
VStem: 483 279<-455 397.078> 776 373<881.43 1065.44> 926 223<693.164 870>
AnchorPoint: "M1" 304 0 basechar 0
AnchorPoint: "Holam" 36 0 basechar 0
AnchorPoint: "H" 1100 0 basechar 0
AnchorPoint: "W" 1000 0 basechar 0
AnchorPoint: "N" 950 0 basechar 0
LayerCount: 2
Fore
SplineSet
92 870 m 1xd0
 87 887 76 922 76 957 c 0
 76 1034 114 1076 136 1101 c 1
 329 1101 l 1
 512 978 630 641 659 564 c 1
 783 604 926 632 926 870 c 1xd0
 795 870 l 1
 785 893 776 912 776 954 c 0xe0
 776 1059 856 1092 872 1100 c 1
 1149 1100 l 1
 1149 1075 l 2
 1149 710 1106 594 965 492 c 1
 888 438 832 408 762 383 c 1
 762 -455 l 1
 483 -455 l 1
 483 4 l 2
 483 76 480 139 480 196 c 0
 480 465 347 744 218 870 c 1
 92 870 l 1xd0
EndSplineSet
Validated: 1
EndChar

StartChar: tsadi
Encoding: 1510 1510 115
Width: 1320
VWidth: 2273
Flags: W
HStem: 4 226<155.386 791> 867 233<150.266 243 869.454 966>
VStem: 825 367<867.718 1056.22> 966 226<692.608 867>
AnchorPoint: "VR" 655 0 basechar 0
AnchorPoint: "Holam" 72 0 basechar 0
AnchorPoint: "H" 680 0 basechar 0
AnchorPoint: "W" 618 0 basechar 0
AnchorPoint: "N" 618 0 basechar 0
LayerCount: 2
Fore
SplineSet
825 947 m 0xe0
 825 1039 906 1089 921 1100 c 1
 1192 1100 l 1
 1192 1075 l 2
 1192 686 1134 552 960 455 c 1
 1152 202 l 1
 1152 4 l 1
 133 4 l 1
 129 25 l 2
 127 36 124 51 124 64 c 0
 124 161 158 205 212 230 c 1
 791 230 l 1
 243 870 l 1
 135 870 l 1
 129 886 113 918 113 949 c 0
 113 1009 153 1063 182 1100 c 1
 395 1100 l 1
 821 597 l 1
 850 615 966 672 966 867 c 1xd0
 840 867 l 1
 836 882 825 917 825 947 c 0xe0
EndSplineSet
Validated: 1
EndChar

StartChar: kof
Encoding: 1511 1511 116
Width: 1426
VWidth: 2273
Flags: W
HStem: 0 21G<634 926.596> 870 230<186.965 999>
VStem: 157 262<-455 702.109>
AnchorPoint: "M1" 44 3 basechar 0
AnchorPoint: "Holam" 104 0 basechar 0
AnchorPoint: "H" 784 0 basechar 0
AnchorPoint: "W" 750 0 basechar 0
AnchorPoint: "N" 722 0 basechar 0
LayerCount: 2
Fore
SplineSet
144 926 m 0
 144 1000 180 1051 222 1100 c 1
 1305 1100 l 1
 1305 873 l 1
 1270 819 l 1
 918 0 l 1
 634 0 l 1
 999 870 l 1
 147 870 l 1
 147 895 l 2
 147 902 144 914 144 926 c 0
157 744 m 1
 179 751 202 760 232 760 c 0
 311 760 362 711 419 667 c 1
 419 -455 l 1
 157 -455 l 1
 157 744 l 1
EndSplineSet
Validated: 1
EndChar

StartChar: resh
Encoding: 1512 1512 117
Width: 1132
VWidth: 2273
Flags: W
HStem: 0 21G<762 1029> 870 230<115.458 663.918>
VStem: 762 267<0 778.111>
AnchorPoint: "VR" 874 0 basechar 0
AnchorPoint: "Holam" 47 0 basechar 0
AnchorPoint: "H" 847 0 basechar 0
AnchorPoint: "W" 870 0 basechar 0
AnchorPoint: "N" 850 -1 basechar 0
LayerCount: 2
Fore
SplineSet
87 938 m 0
 87 1003 109 1050 141 1100 c 1
 503 1100 l 2
 781 1100 901 1036 974 906 c 1
 1021 835 1029 764 1029 575 c 2
 1029 0 l 1
 762 0 l 1
 762 637 l 2
 762 780 662 870 514 870 c 2
 96 870 l 1
 92 889 87 906 87 938 c 0
EndSplineSet
Validated: 1
Substitution2: "'jalt' Justification Alternatives lookup -1" resh.wide
EndChar

StartChar: shin
Encoding: 1513 1513 118
Width: 1641
VWidth: 2273
Flags: W
HStem: -36 252<629.082 1067.66> 322 185<543 634.574> 870 230<132.268 185 653.573 717 1191.83 1257>
VStem: 98 354<870.328 1069.78> 185 267<507 870> 624 353<871.725 1073.35> 717 260<581.678 870> 1159 358<870 1071.32> 1257 260<378.067 870>
AnchorPoint: "VR" 983 0 basechar 0
AnchorPoint: "Holam" 58 0 basechar 0
AnchorPoint: "H" 874 0 basechar 0
AnchorPoint: "W" 850 0 basechar 0
AnchorPoint: "N" 830 0 basechar 0
LayerCount: 2
Fore
SplineSet
98 948 m 0xf0
 98 1009 124 1054 168 1100 c 1
 452 1100 l 1
 452 507 l 1
 640 507 717 600 717 684 c 2
 717 870 l 1xea
 643 870 l 1
 630 907 624 931 624 968 c 0xe4
 624 1047 682 1087 699 1100 c 1
 977 1100 l 1
 977 705 l 2
 977 535 797 322 543 322 c 1
 653 234 689 216 838 216 c 0
 1158 216 1257 403 1257 505 c 2
 1257 870 l 1xe280
 1165 870 l 1
 1162 892 l 1
 1162 912 1159 933 1159 947 c 0xe1
 1159 1019 1191 1060 1230 1100 c 1
 1517 1100 l 1
 1517 485 l 2
 1517 267 1250 -36 833 -36 c 0
 408 -36 185 243 185 501 c 2
 185 870 l 1xe880
 109 870 l 1
 105 891 l 2
 102 909 98 929 98 948 c 0xf0
EndSplineSet
Validated: 1
EndChar

StartChar: tav
Encoding: 1514 1514 119
Width: 1487
VWidth: 2273
Flags: W
HStem: -16 216<116.141 323.346> 0 21G<1125 1382> 870 230<219.686 347 623 1031.92>
VStem: 347 276<222.909 870> 1125 257<0 772.199>
AnchorPoint: "VR" 833 0 basechar 0
AnchorPoint: "Holam" 131 0 basechar 0
AnchorPoint: "R" 750 0 basechar 0
AnchorPoint: "H" 802 -2 basechar 0
AnchorPoint: "W" 800 -2 basechar 0
AnchorPoint: "N" 802 -2 basechar 0
LayerCount: 2
Fore
SplineSet
140 226 m 1xb8
 203 206 226 200 248 200 c 0xb8
 295 200 336 255 347 279 c 1
 347 870 l 1
 202 870 l 1
 193 909 192 917 192 949 c 0
 192 1022 220 1063 255 1100 c 1
 1005 1100 l 2
 1077 1100 1148 1090 1212 1042 c 1
 1322 963 1382 845 1382 688 c 2
 1382 0 l 1
 1125 0 l 1
 1125 688 l 1
 1104 767 1031 847 949 870 c 1
 623 870 l 1
 623 223 l 1
 597 115 546 46 461 21 c 1x78
 384 -4 322 -16 275 -16 c 0
 240 -16 152 -7 79 33 c 1
 77 49 74 66 74 88 c 0
 74 171 124 212 140 226 c 1xb8
EndSplineSet
Validated: 1
Substitution2: "'jalt' Justification Alternatives lookup -1" tav.wide
EndChar

StartChar: geresh
Encoding: 1523 1523 123
Width: 508
Flags: W
HStem: 829 203<80 173.615>
VStem: 195 233<1044.13 1308>
LayerCount: 2
Fore
SplineSet
195 1308 m 1
 428 1308 l 1
 428 1257 l 0
 428 1021 323 829 130 829 c 0
 80 829 l 1
 80 1032 l 1
 130 1032 l 0
 161 1032 195 1047 195 1222 c 0
 195 1308 l 1
EndSplineSet
Validated: 1
EndChar

StartChar: gershayim
Encoding: 1524 1524 124
Width: 805
Flags: W
HStem: 829 203<80 179.624 389 452.615>
VStem: 195 233<1038.36 1308> 474 233<1041.13 1305>
LayerCount: 2
Fore
SplineSet
195 1308 m 1
 428 1308 l 1
 428 1257 l 2
 428 1173 415 1095 389 1029 c 1
 409 1029 l 2
 440 1029 474 1044 474 1219 c 2
 474 1305 l 1
 707 1305 l 1
 707 1254 l 2
 707 1018 602 826 409 826 c 2
 359 826 l 1
 359 967 l 1
 309 882 231 829 130 829 c 2
 80 829 l 1
 80 1032 l 1
 130 1032 l 2
 161 1032 195 1047 195 1222 c 2
 195 1308 l 1
EndSplineSet
Validated: 1
EndChar

StartChar: newshekel
Encoding: 8362 8362 133
Width: 1449
VWidth: 2273
Flags: W
HStem: -25 21G<100 304> -7 202<626 1131.37> 880 202<304 810.293>
VStem: 100 204<-25 880> 422 204<195 746> 814 202<244 874.383> 1136 202<198.837 1068>
LayerCount: 2
Fore
SplineSet
1088 -7 m 2x7e
 422 -7 l 1
 422 746 l 1
 626 746 l 1
 626 195 l 1
 1060 195 l 0
 1133 195 1136 210 1136 270 c 0
 1136 1068 l 1
 1338 1068 l 1
 1338 242 l 0
 1338 47 1249 -7 1088 -7 c 2x7e
766 1082 m 2
 931 1082 1016 1023 1016 832 c 0
 1016 244 l 1
 814 244 l 1
 814 805 l 0
 814 867 809 880 738 880 c 0
 304 880 l 1
 304 -25 l 1
 100 -25 l 1xbe
 100 1082 l 1
 766 1082 l 2
EndSplineSet
Validated: 1
EndChar

StartChar: dottedcircle
Encoding: 9676 9676 134
Width: 1276
VWidth: 2273
Flags: W
HStem: 36 189<557.338 718.662> 96 189<334.586 495.662 780.338 941.414> 258 190<173.24 331.421 944.293 1102.72> 481 190<112.287 272.662 1003.34 1163.71> 704 190<173.284 331.707 944.579 1102.76> 867 189<334.586 495.662 780.338 941.414> 927 191<558.557 717.421>
VStem: 98 189<495.338 656.662> 158 189<272.586 433.662 718.338 879.414> 320 190<111.284 269.707 882.579 1040.76> 543 190<50.2868 210.662 941.338 1103.12> 766 190<111.24 269.421 882.293 1040.72> 929 189<272.586 433.662 718.338 879.414> 989 189<495.338 656.662>
AnchorPoint: "Holam" 1095 3 basechar 0
AnchorPoint: "R" 635 0 basechar 0
LayerCount: 2
Fore
SplineSet
1024 894 m 0x1828
 1079 894 1118 848 1118 799 c 0
 1118 744 1073 704 1024 704 c 0
 969 704 929 749 929 799 c 0
 929 853 974 894 1024 894 c 0x1828
861 285 m 0x5030
 915 285 956 240 956 190 c 0
 956 135 910 96 861 96 c 0
 806 96 766 141 766 190 c 0
 766 245 811 285 861 285 c 0x5030
252 448 m 0x30a0
 307 448 347 403 347 353 c 0
 347 299 302 258 252 258 c 0
 197 258 158 304 158 353 c 0
 158 408 203 448 252 448 c 0x30a0
415 1056 m 0x1460
 470 1056 510 1011 510 962 c 0
 510 907 465 867 415 867 c 0
 361 867 320 912 320 962 c 0
 320 1017 366 1056 415 1056 c 0x1460
252 894 m 0x18a0
 308 894 347 848 347 799 c 0
 347 744 302 704 252 704 c 0
 197 704 158 749 158 799 c 0
 158 853 202 894 252 894 c 0x18a0
415 285 m 0x5060
 470 285 510 240 510 190 c 0
 510 135 465 96 415 96 c 0
 361 96 320 140 320 190 c 0
 320 246 366 285 415 285 c 0x5060
1024 448 m 0x3028
 1079 448 1118 403 1118 353 c 0
 1118 299 1074 258 1024 258 c 0
 968 258 929 304 929 353 c 0
 929 408 974 448 1024 448 c 0x3028
861 1056 m 0x1430
 915 1056 956 1012 956 962 c 0
 956 906 910 867 861 867 c 0
 806 867 766 912 766 962 c 0
 766 1017 811 1056 861 1056 c 0x1430
638 225 m 0x9020
 693 225 733 180 733 130 c 0
 733 75 688 36 638 36 c 0
 583 36 543 81 543 130 c 0
 543 185 588 225 638 225 c 0x9020
1084 671 m 0
 1139 671 1178 626 1178 576 c 0
 1178 521 1133 481 1084 481 c 0
 1029 481 989 526 989 576 c 0x1024
 989 631 1034 671 1084 671 c 0
638 1118 m 0x1220
 694 1118 733 1071 733 1022 c 0
 733 967 688 927 638 927 c 0
 583 927 543 972 543 1022 c 0
 543 1076 587 1118 638 1118 c 0x1220
192 671 m 0
 247 671 287 626 287 576 c 0
 287 521 242 481 192 481 c 0
 137 481 98 526 98 576 c 0x1120
 98 631 143 671 192 671 c 0
EndSplineSet
Validated: 1
EndChar

StartChar: ayin.alt
Encoding: 64288 64288 140
Width: 1372
VWidth: 2273
Flags: W
HStem: 1080 20G<187 484.634 951 1249>
VStem: 875 374<870.219 1071.54> 987 262<379.9 870>
AnchorPoint: "D" 820 0 basechar 0
AnchorPoint: "VR" 806 0 basechar 0
AnchorPoint: "Holam" 90.1699 0 basechar 0
AnchorPoint: "N" 648.578 0 basechar 0
AnchorPoint: "W" 700 0 basechar 0
AnchorPoint: "H" 700 0 basechar 0
LayerCount: 2
Fore
SplineSet
140 870 m 1xa0
 136 883 131 899 131 915 c 0
 131 961 141 1056 187 1094 c 1
 194 1100 l 1
 477 1100 l 1
 798 259 l 1
 894 284 987 411 987 512 c 2
 987 870 l 1xa0
 885 870 l 1
 878 884 l 2
 866 904 875 907 875 910 c 0xc0
 875 953 884 1065 951 1097 c 1
 956 1100 l 1
 1249 1100 l 1
 1249 613 l 2
 1249 344 1086 75 897 49 c 1
 83 -39 l 1
 71 -28 68 -31 68 -13 c 0
 68 -4 69 10 69 36 c 1
 69 38 l 1
 77 90 95 148 167 208 c 1
 498 246 l 1
 254 870 l 1
 140 870 l 1xa0
EndSplineSet
Validated: 1
EndChar

StartChar: alef.wide
Encoding: 64289 64289 141
Width: 1909
VWidth: 2273
Flags: W
HStem: 0 21G<121 470 1491.5 1860> 1085 20G<82 501 1447.5 1759>
VStem: 121 347<0 217.917> 243 225<230 386.407> 1397 363<882.089 1083.2> 1484 276<756.887 880>
AnchorPoint: "R" 920 0 basechar 0
AnchorPoint: "VR" 1079 0 basechar 0
AnchorPoint: "Holam" 67 0 basechar 0
AnchorPoint: "N" 1000 0 basechar 0
AnchorPoint: "W" 1000 0 basechar 0
AnchorPoint: "H" 1000 0 basechar 0
LayerCount: 2
Fore
SplineSet
121 0 m 1xe8
 121 80 132 157 171 230 c 1
 243 230 l 1
 243 475 385 695 533 815 c 1
 418 899 288 979 154 1059 c 1
 82 1105 l 1
 495 1105 l 1
 501 1101 l 1
 691 985 1115 715 1324 542 c 1
 1395 592 1484 764 1484 868 c 2
 1484 880 l 1xd4
 1397 880 l 1
 1397 905 l 2
 1397 1022 1442 1085 1453 1100 c 1
 1759 1100 l 1
 1759 1067 1760 1028 1760 988 c 0
 1760 827 1683 592 1488 445 c 1
 1616 321 1759 190 1841 36 c 2
 1860 0 l 1
 1556 0 l 1
 1427 214 921 594 701 706 c 1
 575 608 468 327 468 171 c 0
 468 111 470 52 470 0 c 1
 121 0 l 1xe8
EndSplineSet
Validated: 1
EndChar

StartChar: daled.wide
Encoding: 64290 64290 142
Width: 1622
VWidth: 2273
Flags: W
HStem: 0 21G<1093 1381> 866 241<120.482 1093 1381 1477.92>
VStem: 1093 288<0 866>
AnchorPoint: "VR" 1236 0 basechar 0
AnchorPoint: "Holam" 40 0 basechar 0
AnchorPoint: "R" 721 0 basechar 0
AnchorPoint: "H" 1208 0 basechar 0
AnchorPoint: "W" 1201 0 basechar 0
AnchorPoint: "N" 1190 0 basechar 0
LayerCount: 2
Fore
SplineSet
1514 1082 m 2
 1514 1014 1494 932 1458 866 c 1
 1381 866 l 1
 1381 0 l 1
 1093 0 l 1
 1093 866 l 1
 95 866 l 1
 90 890 83 912 83 936 c 0
 83 987 114 1056 144 1107 c 1
 1514 1107 l 1
 1514 1082 l 2
EndSplineSet
Validated: 1
EndChar

StartChar: he.wide
Encoding: 64291 64291 143
Width: 1816
VWidth: 2273
Flags: W
HStem: 0 21G<196 437 1447 1712> 869 231<155.665 1357.18>
VStem: 196 241<0 665.373> 1447 265<0 780.689>
AnchorPoint: "R" 832 0 basechar 0
AnchorPoint: "VR" 1010 0 basechar 0
AnchorPoint: "Holam" 92 0 basechar 0
AnchorPoint: "H" 950 0 basechar 0
AnchorPoint: "W" 950 0 basechar 0
AnchorPoint: "N" 914 0 basechar 0
LayerCount: 2
Fore
SplineSet
1447 638 m 2
 1447 776 1357 869 1216 869 c 2
 138 869 l 1
 134 890 l 2
 132 905 131 922 131 938 c 0
 131 991 146 1046 177 1100 c 1
 1205 1100 l 2
 1467 1100 1584 1037 1657 907 c 1
 1704 837 1712 769 1712 576 c 2
 1712 0 l 1
 1447 0 l 1
 1447 638 l 2
196 0 m 1
 196 721 l 1
 224 718 l 2
 293 711 371 685 437 637 c 1
 437 0 l 1
 196 0 l 1
EndSplineSet
Validated: 1
EndChar

StartChar: khaf.wide
Encoding: 64292 64292 144
Width: 1633
VWidth: 2273
Flags: W
HStem: 0 232<166.746 1175.73> 868 231<163.533 1183.16>
VStem: 1323 261<384.206 729.276>
AnchorPoint: "VR" 847 0 basechar 0
AnchorPoint: "Holam" 93 0 basechar 0
AnchorPoint: "R" 755 0 basechar 0
AnchorPoint: "N" 672 0 basechar 0
AnchorPoint: "W" 780 0 basechar 0
AnchorPoint: "H" 722 0 basechar 0
LayerCount: 2
Fore
SplineSet
129 939 m 0
 129 1005 160 1052 193 1099 c 1
 1088 1099 l 2
 1315 1099 1584 906 1584 548 c 0
 1584 177 1331 0 1083 0 c 2
 125 0 l 1
 125 7 122 22 122 36 c 0
 122 113 157 181 197 232 c 1
 1082 232 l 1
 1207 256 1323 377 1323 552 c 0
 1323 781 1167 868 1005 868 c 2
 139 868 l 1
 134 891 129 906 129 939 c 0
EndSplineSet
Validated: 1
EndChar

StartChar: lamed.wide
Encoding: 64293 64293 145
Width: 1648
VWidth: 2273
Flags: W
HStem: 0 21G<664 967.015> 872 230<376 1219>
VStem: 14 362<1328 1519.26> 120 256<1102 1328>
AnchorPoint: "VR" 881 0 basechar 0
AnchorPoint: "Holam" -51 -161 basechar 0
AnchorPoint: "N" 785 0 basechar 0
AnchorPoint: "W" 770 0 basechar 0
AnchorPoint: "H" 800 0 basechar 0
LayerCount: 2
Fore
SplineSet
664 0 m 1xd0
 1219 872 l 1
 120 872 l 1
 120 1328 l 1xd0
 14 1328 l 1
 14 1353 l 2xe0
 14 1440 30 1499 84 1548 c 1
 91 1555 l 1
 376 1555 l 1
 376 1102 l 1
 1526 1102 l 1
 1526 879 l 1
 954 0 l 1
 664 0 l 1xd0
EndSplineSet
Validated: 1
EndChar

StartChar: finalmem.wide
Encoding: 64294 64294 146
Width: 1847
VWidth: 2273
Flags: W
HStem: 0 228<417 1456> 866 234<417 1410.22>
VStem: 143 274<228 866> 1456 268<228 824.938>
AnchorPoint: "VR" 1072 0 basechar 0
AnchorPoint: "Holam" 117 0 basechar 0
AnchorPoint: "N" 849 0 basechar 0
AnchorPoint: "W" 900 0 basechar 0
AnchorPoint: "H" 916 0 basechar 0
LayerCount: 2
Fore
SplineSet
1456 228 m 1
 1456 689 l 2
 1456 831 1386 866 1294 866 c 2
 417 866 l 1
 417 228 l 1
 1456 228 l 1
143 1100 m 1
 1339 1100 l 2
 1663 1100 1724 855 1724 693 c 2
 1724 0 l 1
 143 0 l 1
 143 1100 l 1
EndSplineSet
Validated: 1
EndChar

StartChar: resh.wide
Encoding: 64295 64295 147
Width: 1538
VWidth: 2273
Flags: W
HStem: 0 21G<1169 1435> 872 230<112.061 1079.15>
VStem: 1169 266<0 782.411>
AnchorPoint: "VR" 1249 0 basechar 0
AnchorPoint: "Holam" 48 0 basechar 0
AnchorPoint: "H" 1236 0 basechar 0
AnchorPoint: "W" 1270 0 basechar 0
AnchorPoint: "N" 1270 0 basechar 0
LayerCount: 2
Fore
SplineSet
96 872 m 1
 92 893 87 919 87 940 c 0
 87 993 102 1049 134 1102 c 1
 925 1102 l 2
 1191 1102 1307 1039 1380 908 c 1
 1427 838 1435 770 1435 577 c 2
 1435 0 l 1
 1169 0 l 1
 1169 639 l 2
 1169 777 1078 872 935 872 c 2
 96 872 l 1
EndSplineSet
Validated: 1
EndChar

StartChar: tav.wide
Encoding: 64296 64296 148
Width: 1984
VWidth: 2273
Flags: W
HStem: -11 215<115.259 324.508> 873 227<183.772 346 613 1526.86>
VStem: 346 267<239 873> 1620 259<0 772.948>
AnchorPoint: "VR" 1229 0 basechar 0
AnchorPoint: "Holam" 108 0 basechar 0
AnchorPoint: "R" 960 0 basechar 0
AnchorPoint: "H" 1106 0 basechar 0
AnchorPoint: "W" 1050 0 basechar 0
AnchorPoint: "N" 1000 0 basechar 0
LayerCount: 2
Fore
SplineSet
140 230 m 1
 190 216 237 204 248 204 c 0
 294 204 335 254 346 283 c 1
 346 873 l 1
 162 873 l 1
 159 896 l 2
 157 913 154 930 154 951 c 0
 154 1014 178 1055 217 1100 c 1
 1505 1100 l 2
 1584 1100 1649 1088 1712 1042 c 0
 1819 965 1879 848 1879 687 c 2
 1879 0 l 1
 1620 0 l 1
 1620 679 l 1
 1602 761 1532 848 1448 873 c 1
 613 873 l 1
 613 239 l 1
 615 237 l 1
 590 126 540 51 457 25 c 1
 385 1 323 -11 275 -11 c 0
 220 -11 125 13 79 38 c 1
 76 54 74 75 74 92 c 0
 74 180 120 212 140 230 c 1
EndSplineSet
Validated: 1
EndChar

StartChar: hebrewplussign
Encoding: 64297 64297 149
Width: 1015
VWidth: 2273
Flags: W
HStem: 418 229<102 406 675 968>
VStem: 406 269<647 938>
LayerCount: 2
Fore
SplineSet
968 418 m 1
 102 418 l 1
 102 647 l 1
 406 647 l 1
 406 938 l 1
 675 938 l 1
 675 647 l 1
 968 647 l 1
 968 418 l 1
EndSplineSet
Validated: 1
EndChar

StartChar: kofdagesh
Encoding: 64327 64327 179
Width: 1426
Flags: W
HStem: 0 21<634 926.596> 468 196<563.559 728.491> 870 230<186.965 999>
VStem: 157 262<-455 702.109> 547 198<484.717 647.705>
AnchorPoint: "N" 722 0 basechar 0
AnchorPoint: "W" 750 0 basechar 0
AnchorPoint: "H" 784 0 basechar 0
AnchorPoint: "Holam" 104 0 basechar 0
AnchorPoint: "M1" 44 3 basechar 0
LayerCount: 2
Fore
SplineSet
1748 510 m 25,35,-1
EndSplineSet
Refer: 84 1468 N 1 0 0 1 646 6 2
Refer: 116 1511 N 1 0 0 1 0 0 2
Validated: 1
LCarets2: 1 0 
Ligature2: "'ccmp' Dagesh" kof dagesh
EndChar

StartChar: aleflamed
Encoding: 64335 64335 187
Width: 1612
VWidth: 2273
Flags: W
HStem: 0 21G<1296 1599> 873 230<385 636.163>
VStem: 128 257<1103 1357> 1221 277<692.457 1099>
AnchorPoint: "VR" 1133 0 basechar 0
AnchorPoint: "Holam" -36 -161 basechar 0
AnchorPoint: "H" 990 0 basechar 0
AnchorPoint: "W" 850 0 basechar 0
AnchorPoint: "N" 981 0 basechar 0
LayerCount: 2
Fore
SplineSet
1296 14 m 0
 1112 355 837 589 603 873 c 1
 128 873 l 1
 128 1357 l 1
 12 1357 l 1
 95 1578 l 1
 385 1578 l 1
 385 1103 l 1
 758 1103 l 1
 766 1095 l 0
 848 1010 891 929 947 863 c 1
 1004 797 1071 713 1149 613 c 1
 1203 659 1221 721 1221 840 c 0
 1221 1099 l 1
 1498 1099 l 1
 1498 1075 l 0
 1498 782 1465 597 1290 467 c 1
 1393 334 1502 175 1579 35 c 0
 1599 0 l 1
 1303 0 l 1
 1296 14 l 0
EndSplineSet
Validated: 1
LCarets2: 2 0 0 
Ligature2: "'ccmp' Alef Lamed" alef uni0000 lamed
Ligature2: "'ccmp' Alef Lamed" alef zerojoin lamed
EndChar

StartChar: nunhapukha
Encoding: 1478 1478 189
Width: 791
VWidth: 2273
Flags: W
HStem: 0 216<390 679> 873 228<393.002 604>
VStem: 134 256<216 870.225>
LayerCount: 2
Fore
SplineSet
454 873 m 0
 415 873 390 870 390 790 c 0
 390 216 l 1
 679 216 l 1
 756 0 l 1
 134 0 l 1
 134 825 l 0
 134 1028 256 1101 390 1101 c 0
 604 1101 l 1
 688 873 l 1
 454 873 l 0
EndSplineSet
Validated: 1
EndChar

StartChar: qamatsqatan
Encoding: 1479 1479 190
Width: 0
VWidth: 2273
GlyphClass: 4
Flags: HW
HStem: -307 167<-193 -76 90 193>
VStem: -76 166<-557 -307>
AnchorPoint: "M2V" -287 0 basemark 0
AnchorPoint: "VR" -95 0 mark 0
AnchorPoint: "W" -1.2998 0 mark 0
LayerCount: 2
Fore
SplineSet
-193 -307 m 1
 -193 -140 l 1
 193 -140 l 1
 193 -307 l 1
 90 -307 l 1
 90 -557 l 1
 -76 -557 l 1
 -76 -307 l 1
 -193 -307 l 1
EndSplineSet
LCarets2: 1 0 
MultipleSubs2: "meteg-tenua-stage2" qamatsqatan meteg
Ligature2: "meteg-tenua-stage1" meteg qamatsqatan
EndChar

StartChar: uni0000
Encoding: 0 0 193
Width: 1086
VWidth: 2273
Flags: W
HStem: -25 138<159 928> 200 131<449.467 623.506> 975 136<449.122 625.452> 1233 151<159 928>
VStem: 17 142<113 1233> 240 151<395.808 910.523> 683 151<398.632 909.5> 928 143<113 1233>
LayerCount: 2
Fore
SplineSet
537 1111 m 0
 624 1111 700 1075 748 1010 c 1
 809 928 834 812 834 649 c 0
 834 367 731 200 537 200 c 0
 337 200 240 372 240 655 c 0
 240 815 267 932 326 1011 c 1
 375 1076 454 1111 537 1111 c 0
537 975 m 0
 446 975 391 884 391 655 c 0
 391 421 448 331 534 331 c 0
 629 331 683 421 683 658 c 0
 683 886 626 975 537 975 c 0
159 1233 m 1
 159 113 l 1
 928 113 l 1
 928 1233 l 1
 159 1233 l 1
17 1384 m 1
 1071 1384 l 1
 1071 -25 l 1
 17 -25 l 1
 17 1384 l 1
EndSplineSet
EndChar

StartChar: .notdef
Encoding: 65539 -1 201
Width: 1086
VWidth: 2273
GlyphClass: 2
Flags: W
HStem: -25 138<159 928> 138 186<429 598> 1010 152<408.613 634.717> 1233 151<159 928>
VStem: 17 142<113 1233> 215 162<805 972.578> 429 169<138 324 399 581.967> 665 168<777.867 979.616> 928 143<113 1233>
LayerCount: 2
Fore
SplineSet
598 399 m 1
 429 399 l 1
 429 496 l 0
 429 550 443 587 472 626 c 1
 494 656 500 663 574 730 c 1
 644 791 665 835 665 885 c 0
 665 961 611 1010 522 1010 c 0
 456 1010 416 985 396 947 c 1
 382 920 377 887 377 830 c 0
 377 805 l 1
 215 805 l 1
 215 830 l 0
 215 1045 327 1162 528 1162 c 0
 712 1162 833 1052 833 885 c 0
 833 788 792 720 693 631 c 1
 602 546 598 535 598 486 c 0
 598 399 l 1
598 324 m 1
 598 138 l 1
 429 138 l 1
 429 324 l 1
 598 324 l 1
159 1233 m 1
 159 113 l 1
 928 113 l 1
 928 1233 l 1
 159 1233 l 1
17 1384 m 1
 1071 1384 l 1
 1071 -25 l 1
 17 -25 l 1
 17 1384 l 1
EndSplineSet
Validated: 1
EndChar

StartChar: A
Encoding: 65 65 202
Width: 1353
Flags: W
HStem: 386 197<490 879>
LayerCount: 2
Fore
SplineSet
950 386 m 1
 425 386 l 1
 271 0 l 1
 32 0 l 1
 555 1370 l 1
 833 1370 l 1
 1348 0 l 1
 1100 0 l 1
 950 386 l 1
490 583 m 1
 879 583 l 1
 691 1106 l 1
 490 583 l 1
EndSplineSet
Validated: 1
EndChar

StartChar: B
Encoding: 66 66 203
Width: 1353
Flags: W
HStem: 0 204<373 969.939> 601 204<373 913.184> 1166 204<373 915.437>
VStem: 148 225<204 601 805 1166> 983 227<868.594 1101.27> 1046 225<274.113 530.59>
LayerCount: 2
Fore
SplineSet
148 0 m 1xf4
 148 1370 l 1
 759 1370 l 2
 908 1370 1016 1340 1093 1271 c 1
 1173 1202 1210 1108 1210 1010 c 0xf8
 1210 856 1130 771 1053 724 c 1
 1206 654 1271 554 1271 401 c 0
 1271 292 1231 192 1158 119 c 1
 1080 37 974 0 826 0 c 2
 148 0 l 1xf4
373 1166 m 1
 373 805 l 1
 711 805 l 2
 816 805 867 816 912 846 c 0
 961 879 983 927 983 985 c 0
 983 1048 958 1094 912 1125 c 0
 867 1155 816 1166 711 1166 c 2
 373 1166 l 1
1046 402 m 0xf4
 1046 472 1014 601 808 601 c 2
 373 601 l 1
 373 204 l 1
 808 204 l 2
 1017 204 1046 336 1046 402 c 0xf4
EndSplineSet
Validated: 1
EndChar

StartChar: C
Encoding: 67 67 204
Width: 1456
Flags: W
HStem: -43 204<556.68 954.995> 1188 204<549.303 961.884>
VStem: 90 225<428.097 927.228>
LayerCount: 2
Fore
SplineSet
760 -43 m 0
 224 -43 90 370 90 669 c 0
 90 889 159 1083 288 1219 c 1
 409 1344 585 1392 768 1392 c 0
 1092 1392 1286 1247 1344 924 c 2
 1349 895 l 1
 1119 895 l 1
 1100 980 1082 1051 1017 1109 c 0
 965 1154 862 1188 746 1188 c 0
 480 1188 315 995 315 671 c 0
 315 357 488 161 762 161 c 0
 910 161 1025 220 1080 323 c 1
 1108 374 1127 436 1142 529 c 2
 1146 550 l 1
 1375 550 l 1
 1372 522 l 2
 1329 143 1127 -43 760 -43 c 0
EndSplineSet
Validated: 1
EndChar

StartChar: D
Encoding: 68 68 205
Width: 1456
Flags: W
HStem: 0 204<392 898.688> 1166 204<392 899.355>
VStem: 167 225<204 1166> 1128 225<432.371 936.636>
LayerCount: 2
Fore
SplineSet
167 0 m 1
 167 1370 l 1
 720 1370 l 2
 1133 1370 1353 1109 1353 686 c 0
 1353 261 1131 0 720 0 c 2
 167 0 l 1
392 1166 m 1
 392 204 l 1
 690 204 l 2
 981 204 1128 369 1128 684 c 0
 1128 928 1042 1166 690 1166 c 2
 392 1166 l 1
EndSplineSet
Validated: 1
EndChar

StartChar: E
Encoding: 69 69 206
Width: 1353
Flags: W
HStem: 0 204<394 1252> 599 204<394 1190> 1166 204<394 1218>
VStem: 169 225<204 599 803 1166>
LayerCount: 2
Fore
SplineSet
394 599 m 1
 394 204 l 1
 1252 204 l 1
 1252 0 l 1
 169 0 l 1
 169 1370 l 1
 1218 1370 l 1
 1218 1166 l 1
 394 1166 l 1
 394 803 l 1
 1190 803 l 1
 1190 599 l 1
 394 599 l 1
EndSplineSet
Validated: 1
EndChar

StartChar: F
Encoding: 70 70 207
Width: 1248
Flags: W
HStem: 599 204<394 1098> 1166 204<394 1188>
VStem: 169 225<0 599 803 1166>
LayerCount: 2
Fore
SplineSet
1098 599 m 1
 394 599 l 1
 394 0 l 1
 169 0 l 1
 169 1370 l 1
 1188 1370 l 1
 1188 1166 l 1
 394 1166 l 1
 394 803 l 1
 1098 803 l 1
 1098 599 l 1
EndSplineSet
Validated: 1
EndChar

StartChar: G
Encoding: 71 71 208
Width: 1561
Flags: W
HStem: -43 204<580.819 1011.34> 544 204<788 1228> 1188 204<578.801 1005.21>
VStem: 83 224<447.883 908.671> 1228 204<358.561 544> 1276 156<-8 52.8311>
LayerCount: 2
Fore
SplineSet
307 680 m 0xf4
 307 473 406 161 801 161 c 0
 1050 161 1228 316 1228 533 c 2
 1228 544 l 1xf8
 788 544 l 1
 788 748 l 1
 1432 748 l 1
 1432 -8 l 1
 1276 -8 l 1
 1239 149 l 1
 1104 18 949 -43 760 -43 c 0
 352 -43 83 252 83 671 c 0
 83 960 225 1392 792 1392 c 0
 1139 1392 1362 1223 1413 933 c 2
 1418 904 l 1
 1190 904 l 1
 1183 936 1140 1188 790 1188 c 0
 498 1188 307 987 307 680 c 0xf4
EndSplineSet
Validated: 1
EndChar

StartChar: H
Encoding: 72 72 209
Width: 1456
Flags: W
HStem: 599 204<383 1085>
VStem: 156 227<0 599 803 1370> 1085 225<0 599 803 1370>
LayerCount: 2
Fore
SplineSet
1085 599 m 1
 383 599 l 1
 383 0 l 1
 156 0 l 1
 156 1370 l 1
 381 1370 l 1
 381 803 l 1
 1085 803 l 1
 1085 1370 l 1
 1310 1370 l 1
 1310 0 l 1
 1085 0 l 1
 1085 599 l 1
EndSplineSet
Validated: 1
EndChar

StartChar: I
Encoding: 73 73 210
Width: 572
Flags: W
VStem: 188 227<0 1370>
LayerCount: 2
Fore
SplineSet
415 1370 m 1
 415 0 l 1
 188 0 l 1
 188 1370 l 1
 415 1370 l 1
EndSplineSet
Validated: 1
EndChar

StartChar: J
Encoding: 74 74 211
Width: 1039
Flags: W
HStem: -43 196<328.573 598.891>
VStem: 32 228<221.393 490> 676 224<227.334 1370>
LayerCount: 2
Fore
SplineSet
676 1370 m 1
 900 1370 l 1
 900 353 l 2
 900 113 744 -43 461 -43 c 0
 187 -43 32 110 32 344 c 2
 32 490 l 1
 260 490 l 1
 260 376 l 2
 260 267 299 153 463 153 c 0
 535 153 597 181 630 224 c 1
 662 263 676 317 676 420 c 2
 676 1370 l 1
EndSplineSet
Validated: 1
EndChar

StartChar: K
Encoding: 75 75 212
Width: 1353
Flags: W
VStem: 148 225<0 469 737 1370>
LayerCount: 2
Fore
SplineSet
373 469 m 1
 373 0 l 1
 148 0 l 1
 148 1370 l 1
 373 1370 l 1
 373 737 l 1
 1070 1370 l 1
 1366 1370 l 1
 758 809 l 1
 1359 0 l 1
 1092 0 l 1
 584 664 l 1
 373 469 l 1
EndSplineSet
Validated: 1
EndChar

StartChar: L
Encoding: 76 76 213
Width: 1144
Flags: W
HStem: 0 204<375 1101>
VStem: 150 225<204 1370>
LayerCount: 2
Fore
SplineSet
375 1370 m 1
 375 204 l 1
 1101 204 l 1
 1101 0 l 1
 150 0 l 1
 150 1370 l 1
 375 1370 l 1
EndSplineSet
Validated: 1
EndChar

StartChar: M
Encoding: 77 77 214
Width: 1715
Flags: W
VStem: 141 215<0 1021> 1371 216<0 1000>
LayerCount: 2
Fore
SplineSet
972 0 m 1
 752 0 l 1
 356 1021 l 1
 356 0 l 1
 141 0 l 1
 141 1370 l 1
 426 1370 l 1
 864 230 l 1
 1301 1350 l 1
 1587 1350 l 1
 1587 0 l 1
 1371 0 l 1
 1371 1000 l 1
 972 0 l 1
EndSplineSet
Validated: 1
EndChar

StartChar: N
Encoding: 78 78 215
Width: 1456
Flags: W
VStem: 143 215<0 1011> 1098 216<349 1370>
LayerCount: 2
Fore
SplineSet
1314 1370 m 1
 1314 0 l 1
 1076 0 l 1
 358 1011 l 1
 358 0 l 1
 143 0 l 1
 143 1370 l 1
 372 1370 l 1
 1098 349 l 1
 1098 1370 l 1
 1314 1370 l 1
EndSplineSet
Validated: 1
EndChar

StartChar: O
Encoding: 79 79 216
Width: 1561
Flags: W
HStem: -43 204<573.526 996.109> 1188 204<572.132 993.342>
VStem: 71 225<445.475 903.947> 1269 225<439.232 900.018>
LayerCount: 2
Fore
SplineSet
781 1392 m 0
 1220 1392 1494 1105 1494 663 c 0
 1494 442 1403 229 1248 102 c 1
 1126 7 963 -43 783 -43 c 0
 351 -43 71 248 71 675 c 0
 71 1102 351 1392 781 1392 c 0
781 1188 m 0
 489 1188 296 983 296 675 c 0
 296 365 491 161 783 161 c 0
 1073 161 1269 364 1269 667 c 0
 1269 984 1080 1188 781 1188 c 0
EndSplineSet
Validated: 1
EndChar

StartChar: P
Encoding: 80 80 217
Width: 1353
Flags: W
HStem: 556 204<396 944.12> 1166 204<396 938.693>
VStem: 171 225<0 556 760 1166> 1027 232<838.471 1084.14>
LayerCount: 2
Fore
SplineSet
836 556 m 2
 396 556 l 1
 396 0 l 1
 171 0 l 1
 171 1370 l 1
 794 1370 l 2
 1100 1370 1259 1216 1259 956 c 0
 1259 826 1221 733 1133 656 c 0
 1055 589 960 556 836 556 c 2
396 1166 m 1
 396 760 l 1
 764 760 l 2
 929 760 1027 833 1027 963 c 0
 1027 1092 929 1166 764 1166 c 2
 396 1166 l 1
EndSplineSet
Validated: 1
EndChar

StartChar: Q
Encoding: 81 81 218
Width: 1561
Flags: W
HStem: -43 204<572.7 965.167> 1188 204<573.488 992.348>
VStem: 71 225<445.475 904.164> 1269 225<442.129 904.887>
LayerCount: 2
Fore
SplineSet
1487 24 m 1
 1368 -122 l 1
 1160 48 l 1
 1031 -21 908 -43 783 -43 c 0
 351 -43 71 248 71 675 c 0
 71 1102 352 1392 783 1392 c 0
 1215 1392 1494 1102 1494 677 c 0
 1494 471 1434 301 1312 162 c 1
 1487 24 l 1
960 432 m 1
 1137 301 l 1
 1228 403 1269 523 1269 676 c 0
 1269 984 1075 1188 783 1188 c 0
 490 1188 296 984 296 675 c 0
 296 365 489 161 781 161 c 0
 856 161 909 171 969 193 c 1
 835 295 l 1
 960 432 l 1
EndSplineSet
Validated: 1
EndChar

StartChar: R
Encoding: 82 82 219
Width: 1456
Flags: W
HStem: 565 204<399 1010.91> 1166 204<399 1017.43>
VStem: 175 224<0 565 769 1166> 1070 223<109.531 504.483> 1088 235<832.361 1099.98>
LayerCount: 2
Fore
SplineSet
1293 332 m 0xf0
 1293 145 1312 121 1376 78 c 1
 1376 0 l 1
 1121 0 l 1
 1114 0 l 1
 1086 60 1070 143 1070 230 c 2
 1070 350 l 2xf0
 1070 516 993 565 856 565 c 2
 399 565 l 1
 399 0 l 1
 175 0 l 1
 175 1370 l 1
 862 1370 l 2
 1166 1370 1323 1232 1323 992 c 0xe8
 1323 850 1270 752 1137 677 c 1
 1263 613 1293 528 1293 332 c 0xf0
1088 967 m 0xe8
 1088 1142 960 1166 826 1166 c 2
 399 1166 l 1
 399 769 l 1
 826 769 l 2
 1006 769 1088 824 1088 967 c 0xe8
EndSplineSet
Validated: 1
EndChar

StartChar: S
Encoding: 83 83 220
Width: 1353
Flags: W
HStem: -43 204<458.7 935.026> 1196 196<461.058 878.503>
VStem: 90 216<299.082 486> 132 226<899.57 1106.14> 1003 217<918 1078.3> 1042 225<255.418 476.018>
LayerCount: 2
Fore
SplineSet
306 461 m 2xe4
 306 281 415 161 694 161 c 0
 739 161 870 163 949 212 c 0
 1006 248 1042 314 1042 375 c 0xe4
 1042 463 971 524 792 565 c 2
 425 652 l 1
 226 700 132 812 132 982 c 0
 132 1234 329 1392 667 1392 c 0
 1024 1392 1220 1226 1220 943 c 2
 1220 918 l 1
 1003 918 l 1
 1003 943 l 2
 1003 1107 881 1196 662 1196 c 0
 477 1196 358 1117 358 998 c 0xd8
 358 920 398 871 581 826 c 2
 953 738 l 1
 1154 686 1267 557 1267 384 c 0
 1267 264 1205 138 1106 63 c 0
 1046 17 917 -43 681 -43 c 0
 409 -43 90 58 90 461 c 2
 90 486 l 1
 306 486 l 1
 306 461 l 2xe4
EndSplineSet
Validated: 1
EndChar

StartChar: T
Encoding: 84 84 221
Width: 1248
Flags: W
HStem: 1166 204<39 506 749 1214>
VStem: 506 243<0 1166>
LayerCount: 2
Fore
SplineSet
1214 1166 m 1
 749 1166 l 1
 749 0 l 1
 506 0 l 1
 506 1166 l 1
 39 1166 l 1
 39 1370 l 1
 1214 1370 l 1
 1214 1166 l 1
EndSplineSet
Validated: 1
EndChar

StartChar: U
Encoding: 85 85 222
Width: 1456
Flags: W
HStem: -43 204<517.951 950.193>
VStem: 160 224<281.186 1370> 1087 225<283.308 1370>
LayerCount: 2
Fore
SplineSet
384 422 m 2
 384 213 573 161 734 161 c 0
 956 161 1087 259 1087 422 c 2
 1087 1370 l 1
 1312 1370 l 1
 1312 417 l 2
 1312 141 1097 -43 734 -43 c 0
 370 -43 160 135 160 417 c 2
 160 1370 l 1
 384 1370 l 1
 384 422 l 2
EndSplineSet
Validated: 1
EndChar

StartChar: V
Encoding: 86 86 223
Width: 1353
Flags: W
HStem: 0 21G<577.277 830.445> 1350 20G<56 304.635 1085.81 1333>
LayerCount: 2
Fore
SplineSet
823 0 m 1
 585 0 l 1
 56 1370 l 1
 297 1370 l 1
 707 296 l 1
 1093 1370 l 1
 1333 1370 l 1
 823 0 l 1
EndSplineSet
Validated: 1
EndChar

StartChar: W
Encoding: 87 87 224
Width: 1923
Flags: W
HStem: 0 21G<400.672 641.621 1263.24 1505.97> 1350 20G<41 293.761 855.347 1092.8 1656.34 1909>
LayerCount: 2
Fore
SplineSet
1500 0 m 1
 1269 0 l 1
 974 1024 l 1
 635 0 l 1
 406 0 l 1
 41 1370 l 1
 289 1370 l 1
 528 366 l 1
 862 1370 l 1
 1087 1370 l 1
 1378 366 l 1
 1662 1370 l 1
 1909 1370 l 1
 1500 0 l 1
EndSplineSet
Validated: 1
EndChar

StartChar: X
Encoding: 88 88 225
Width: 1353
Flags: W
HStem: 0 21G<41 329.743 1072.33 1364> 1350 20G<71 359.756 1057.2 1342>
LayerCount: 2
Fore
SplineSet
848 703 m 1
 1364 0 l 1
 1087 0 l 1
 702 525 l 1
 315 0 l 1
 41 0 l 1
 558 703 l 1
 71 1370 l 1
 345 1370 l 1
 708 878 l 1
 1072 1370 l 1
 1342 1370 l 1
 848 703 l 1
EndSplineSet
Validated: 1
EndChar

StartChar: Y
Encoding: 89 89 226
Width: 1353
Flags: W
VStem: 590 240<0 530>
LayerCount: 2
Fore
SplineSet
830 530 m 1
 830 0 l 1
 590 0 l 1
 590 530 l 1
 24 1370 l 1
 300 1370 l 1
 714 752 l 1
 1114 1370 l 1
 1382 1370 l 1
 830 530 l 1
EndSplineSet
Validated: 1
EndChar

StartChar: Z
Encoding: 90 90 227
Width: 1248
Flags: W
HStem: 0 204<352 1195> 1166 204<105 896>
LayerCount: 2
Fore
SplineSet
1192 1370 m 1
 1192 1186 l 1
 352 204 l 1
 1195 204 l 1
 1195 0 l 1
 53 0 l 1
 53 188 l 1
 896 1166 l 1
 105 1166 l 1
 105 1370 l 1
 1192 1370 l 1
EndSplineSet
Validated: 1
EndChar

StartChar: a
Encoding: 97 97 228
Width: 1144
Flags: W
HStem: -43 181<919.5 1103.68> -43 162<328.393 657.736> 818 195<384.623 738.628>
VStem: 79 213<158.843 347.263> 122 208<643 762.066> 773 214<213.668 450 606.397 775.678>
LayerCount: 2
Fore
SplineSet
122 668 m 2x6c
 122 944 352 1013 564 1013 c 0
 846 1013 987 915 987 735 c 2
 987 187 l 2
 987 157 1002 138 1046 138 c 0
 1057 138 1063 139 1074 141 c 2
 1105 149 l 1
 1105 -20 l 1
 1059 -32 1021 -43 973 -43 c 0xac
 866 -43 811 5 789 79 c 1
 675 -6 567 -43 438 -43 c 0
 211 -43 79 76 79 256 c 0x74
 79 388 145 479 268 526 c 0
 480 607 773 546 773 664 c 2
 773 703 l 2
 773 795 661 818 558 818 c 0
 384 818 341 752 330 665 c 2
 330 643 l 1
 122 643 l 1
 122 668 l 2x6c
773 450 m 1
 585 389 292 435 292 252 c 0
 292 146 389 119 475 119 c 0x74
 571 119 648 146 714 200 c 0
 759 238 773 262 773 310 c 2
 773 450 l 1
EndSplineSet
Validated: 1
EndChar

StartChar: b
Encoding: 98 98 229
Width: 1144
Flags: W
HStem: -43 196<431.622 736.28> 816 197<430.99 734.807>
VStem: 101 206<291.184 678.5 899 1370> 101 191<0 77> 869 214<294.764 675.734>
LayerCount: 2
Fore
SplineSet
101 1370 m 1xe8
 307 1370 l 1
 307 899 l 1xe8
 382 976 483 1013 614 1013 c 0
 911 1013 1083 813 1083 496 c 0
 1083 169 901 -43 605 -43 c 0
 471 -43 367 -3 292 77 c 1
 292 0 l 1
 101 0 l 1xd8
 101 1370 l 1xe8
581 816 m 0
 414 816 307 687 307 485 c 0
 307 283 414 153 581 153 c 0
 756 153 869 285 869 479 c 0
 869 688 757 816 581 816 c 0
EndSplineSet
Validated: 1
EndChar

StartChar: c
Encoding: 99 99 230
Width: 1039
Flags: W
HStem: -43 194<394.861 700.152> 818 195<398.219 697.275>
VStem: 58 214<283.776 686.04>
LayerCount: 2
Fore
SplineSet
548 1013 m 0
 813 1013 985 865 985 629 c 2
 985 604 l 1
 780 604 l 1
 777 626 l 2
 761 744 687 818 546 818 c 0
 374 818 272 695 272 476 c 0
 272 270 375 151 551 151 c 0
 696 151 766 232 788 367 c 2
 792 388 l 1
 996 388 l 1
 996 363 l 2
 996 110 819 -43 546 -43 c 0
 238 -43 58 159 58 475 c 0
 58 803 243 1013 548 1013 c 0
EndSplineSet
Validated: 1
EndChar

StartChar: d
Encoding: 100 100 231
Width: 1144
Flags: W
HStem: -43 196<393.559 700.821> 816 197<392.476 700.07>
VStem: 49 213<293.598 674.334> 824 206<289.768 679.281 906 1370> 841 189<0 83>
LayerCount: 2
Fore
SplineSet
1030 1370 m 1xf0
 1030 0 l 1
 841 0 l 1
 841 83 l 1xe8
 759 -5 657 -43 526 -43 c 0
 222 -43 49 163 49 494 c 0
 49 808 228 1013 520 1013 c 0
 646 1013 751 977 824 906 c 1
 824 1370 l 1
 1030 1370 l 1xf0
549 816 m 0
 375 816 262 685 262 485 c 0
 262 284 375 153 551 153 c 0
 718 153 824 282 824 481 c 0xf0
 824 691 717 816 549 816 c 0
EndSplineSet
Validated: 1
EndChar

StartChar: e
Encoding: 101 101 232
Width: 1144
Flags: W
HStem: -43 194<407.732 733.276> 415 177<293 847> 818 195<402.302 737.287>
VStem: 75 214<263.025 415 592 710.351> 847 217<592 715.22>
LayerCount: 2
Fore
SplineSet
579 151 m 0
 737 151 806 240 842 349 c 1
 1048 349 l 1
 1043 320 l 2
 1002 95 836 -43 572 -43 c 0
 257 -43 75 157 75 479 c 0
 75 804 265 1013 577 1013 c 0
 793 1013 955 913 1022 748 c 0
 1053 674 1064 584 1064 439 c 2
 1064 415 l 1
 289 415 l 1
 289 197 475 151 579 151 c 0
293 592 m 1
 847 592 l 1
 847 720 725 818 575 818 c 0
 422 818 293 730 293 592 c 1
EndSplineSet
Validated: 1
EndChar

StartChar: f
Encoding: 102 102 233
Width: 572
Flags: W
HStem: 807 178<34 165 371 535> 1188 187<377.483 535>
VStem: 165 206<0 807 985 1181.3>
LayerCount: 2
Fore
SplineSet
421 1375 m 0
 469 1375 487 1372 535 1361 c 1
 535 1188 l 1
 455 1188 l 2
 390 1188 371 1158 371 1114 c 2
 371 985 l 1
 535 985 l 1
 535 807 l 1
 371 807 l 1
 371 0 l 1
 165 0 l 1
 165 807 l 1
 34 807 l 1
 34 985 l 1
 165 985 l 1
 165 1127 l 2
 165 1279 260 1375 421 1375 c 0
EndSplineSet
Validated: 1
EndChar

StartChar: g
Encoding: 103 103 234
Width: 1144
Flags: W
HStem: -410 182<359.216 709.334> -43 194<388.158 688.952> 818 195<391.828 688.072>
VStem: 54 214<283.25 681.568> 807 212<-118.898 86 277.005 689.07> 824 195<890 985>
LayerCount: 2
Fore
SplineSet
807 479 m 0xf8
 807 698 705 818 538 818 c 0
 373 818 268 696 268 485 c 0
 268 273 370 151 540 151 c 0
 703 151 807 270 807 479 c 0xf8
505 -43 m 0
 297 -43 54 97 54 475 c 0
 54 791 232 1013 519 1013 c 0
 641 1013 740 973 824 890 c 1
 824 985 l 1
 1019 985 l 1
 1019 169 l 2xf4
 1019 -123 977 -410 526 -410 c 0
 250 -410 86 -281 86 -88 c 2
 86 -63 l 1
 292 -63 l 1
 296 -84 l 2
 304 -135 317 -156 351 -180 c 0
 392 -209 459 -228 532 -228 c 0
 776 -228 807 -74 807 86 c 1
 720 -4 626 -43 505 -43 c 0
EndSplineSet
Validated: 1
EndChar

StartChar: h
Encoding: 104 104 235
Width: 1144
Flags: W
HStem: 826 187<452.28 752.634>
VStem: 132 205<0 705.98 892 1370> 807 206<0 771.721>
LayerCount: 2
Fore
SplineSet
132 1370 m 1
 337 1370 l 1
 337 892 l 1
 430 980 526 1013 663 1013 c 0
 884 1013 1013 903 1013 733 c 2
 1013 0 l 1
 807 0 l 1
 807 667 l 2
 807 726 789 761 747 787 c 0
 713 808 663 826 608 826 c 0
 444 826 337 714 337 536 c 2
 337 0 l 1
 132 0 l 1
 132 1370 l 1
EndSplineSet
Validated: 1
EndChar

StartChar: i
Encoding: 105 105 236
Width: 467
Flags: W
HStem: 1122 248<126 332>
VStem: 126 206<0 985 1122 1370>
LayerCount: 2
Fore
SplineSet
332 985 m 1
 332 0 l 1
 126 0 l 1
 126 985 l 1
 332 985 l 1
332 1370 m 1
 332 1122 l 1
 126 1122 l 1
 126 1370 l 1
 332 1370 l 1
EndSplineSet
Validated: 1
EndChar

StartChar: j
Encoding: 106 106 237
Width: 467
Flags: W
HStem: -410 189<-34 119.262> 1122 248<132 337>
VStem: 132 205<-213.272 985 1122 1370>
LayerCount: 2
Fore
SplineSet
44 -410 m 0
 13 -410 -3 -406 -34 -399 c 1
 -34 -221 l 1
 -9 -221 l 2
 21 -221 25 -222 29 -222 c 0
 111 -222 132 -201 132 -118 c 2
 132 985 l 1
 337 985 l 1
 337 -180 l 2
 337 -327 235 -410 44 -410 c 0
337 1370 m 1
 337 1122 l 1
 132 1122 l 1
 132 1370 l 1
 337 1370 l 1
EndSplineSet
Validated: 1
EndChar

StartChar: k
Encoding: 107 107 238
Width: 1039
Flags: W
VStem: 109 206<0 373 627 1370>
LayerCount: 2
Fore
SplineSet
315 627 m 1
 739 985 l 1
 1018 985 l 1
 629 640 l 1
 1063 0 l 1
 811 0 l 1
 451 494 l 1
 315 373 l 1
 315 0 l 1
 109 0 l 1
 109 1370 l 1
 315 1370 l 1
 315 627 l 1
EndSplineSet
Validated: 1
EndChar

StartChar: l
Encoding: 108 108 239
Width: 467
Flags: W
VStem: 128 208<0 1370>
LayerCount: 2
Fore
SplineSet
336 1370 m 1
 336 0 l 1
 128 0 l 1
 128 1370 l 1
 336 1370 l 1
EndSplineSet
Validated: 1
EndChar

StartChar: m
Encoding: 109 109 240
Width: 1728
Flags: W
HStem: 826 187<453.601 721.467 1070.53 1340.07>
VStem: 133 220<0 734.442 893 985> 767 208<0 734.442> 1388 208<0 775.417>
LayerCount: 2
Fore
SplineSet
133 985 m 1
 352 985 l 1
 352 893 l 1
 437 977 523 1013 654 1013 c 0
 794 1013 877 970 937 879 c 1
 1033 978 1127 1013 1271 1013 c 0
 1486 1013 1596 906 1596 727 c 2
 1596 0 l 1
 1388 0 l 1
 1388 663 l 2
 1388 765 1326 826 1209 826 c 0
 1082 826 975 730 975 606 c 2
 975 0 l 1
 767 0 l 1
 767 663 l 2
 767 766 706 826 587 826 c 0
 460 826 353 730 353 606 c 2
 353 0 l 1
 133 0 l 1
 133 985 l 1
EndSplineSet
Validated: 1
EndChar

StartChar: n
Encoding: 110 110 241
Width: 1144
Flags: W
HStem: 826 187<452.648 753.8>
VStem: 132 207<0 705.98 872 985> 809 206<0 771.522>
LayerCount: 2
Fore
SplineSet
132 985 m 1
 326 985 l 1
 326 872 l 1
 415 972 518 1013 662 1013 c 0
 882 1013 1015 902 1015 733 c 2
 1015 0 l 1
 809 0 l 1
 809 667 l 2
 809 766 731 826 610 826 c 0
 446 826 339 714 339 536 c 2
 339 0 l 1
 132 0 l 1
 132 985 l 1
EndSplineSet
Validated: 1
EndChar

StartChar: o
Encoding: 111 111 242
Width: 1144
Flags: W
HStem: -43 194<409.566 715.06> 818 195<409.352 716.663>
VStem: 68 213<287.117 682.285> 845 213<284.917 680.066>
LayerCount: 2
Fore
SplineSet
561 1013 m 0
 884 1013 1058 816 1058 477 c 0
 1058 155 878 -43 563 -43 c 0
 244 -43 68 155 68 485 c 0
 68 815 246 1013 561 1013 c 0
563 818 m 0
 387 818 281 695 281 485 c 0
 281 273 387 151 563 151 c 0
 736 151 845 275 845 479 c 0
 845 696 741 818 563 818 c 0
EndSplineSet
Validated: 1
EndChar

StartChar: p
Encoding: 112 112 243
Width: 1144
Flags: W
HStem: -43 196<438.569 735.753> 816 197<437.713 735.891>
VStem: 101 209<-410 64 291.184 678.5 886 985> 869 214<294.302 674.911>
LayerCount: 2
Fore
SplineSet
101 -410 m 1
 101 985 l 1
 296 985 l 1
 296 886 l 1
 378 970 487 1013 614 1013 c 0
 912 1013 1083 803 1083 475 c 0
 1083 162 905 -43 617 -43 c 0
 493 -43 396 -10 310 64 c 1
 310 -410 l 1
 101 -410 l 1
586 816 m 0
 421 816 310 687 310 485 c 0
 310 283 421 153 586 153 c 0
 758 153 869 284 869 479 c 0
 869 688 758 816 586 816 c 0
EndSplineSet
Validated: 1
EndChar

StartChar: q
Encoding: 113 113 244
Width: 1144
Flags: W
HStem: -43 196<395.459 697.344> 816 197<393.347 696.729>
VStem: 49 213<293.621 674.126> 822 208<-410 67 289.279 678.793> 841 189<896 985>
LayerCount: 2
Fore
SplineSet
1030 -410 m 1xf0
 822 -410 l 1
 822 67 l 1xf0
 745 -7 647 -43 515 -43 c 0
 221 -43 49 156 49 474 c 0
 49 801 230 1013 523 1013 c 0
 648 1013 758 972 841 896 c 1
 841 985 l 1
 1030 985 l 1xe8
 1030 -410 l 1xf0
548 816 m 0
 374 816 262 684 262 485 c 0
 262 284 374 153 548 153 c 0
 713 153 822 282 822 479 c 0
 822 691 712 816 548 816 c 0
EndSplineSet
Validated: 1
EndChar

StartChar: r
Encoding: 114 114 245
Width: 675
Flags: W
HStem: 797 216<430.707 653>
VStem: 130 207<0 694.268 864 985>
LayerCount: 2
Fore
SplineSet
628 797 m 2
 519 797 337 795 337 504 c 2
 337 0 l 1
 130 0 l 1
 130 985 l 1
 324 985 l 1
 324 864 l 1
 398 964 472 1013 568 1013 c 0
 591 1013 606 1011 632 1007 c 2
 653 1003 l 1
 653 797 l 1
 628 797 l 2
EndSplineSet
Validated: 1
EndChar

StartChar: s
Encoding: 115 115 246
Width: 1039
Flags: W
HStem: -43 194<341.377 701.847> 818 195<341.512 666.559>
VStem: 88 214<636.501 779.356> 707 216<660 775.599> 749 213<197.261 343.916>
LayerCount: 2
Fore
SplineSet
923 660 m 1xf0
 707 660 l 1
 707 685 l 2xf0
 707 791 607 818 510 818 c 0
 375 818 302 770 302 702 c 0
 302 658 334 621 487 591 c 2
 658 557 l 1
 843 517 962 445 962 276 c 0
 962 84 796 -43 506 -43 c 0
 112 -43 64 180 64 318 c 2
 64 343 l 1
 276 343 l 1
 279 321 l 2
 287 258 297 233 319 209 c 1
 370 161 466 151 521 151 c 0
 659 151 749 200 749 274 c 0xe8
 749 316 732 354 602 380 c 2
 435 413 l 1
 174 469 88 548 88 705 c 0
 88 890 247 1013 516 1013 c 0
 783 1013 923 892 923 685 c 2
 923 660 l 1xf0
EndSplineSet
Validated: 1
EndChar

StartChar: t
Encoding: 116 116 247
Width: 572
Flags: W
HStem: -43 187<366.931 526.586> 807 178<26 160 366 527>
VStem: 160 206<144.397 807 985 1255>
LayerCount: 2
Fore
SplineSet
366 203 m 1
 366 154 371 144 427 144 c 0
 457 144 478 145 495 150 c 2
 527 159 l 1
 527 -26 l 1
 506 -30 l 2
 453 -39 414 -43 374 -43 c 0
 237 -43 160 21 160 128 c 2
 160 807 l 1
 26 807 l 1
 26 985 l 1
 160 985 l 1
 160 1255 l 1
 366 1255 l 1
 366 985 l 1
 527 985 l 1
 527 807 l 1
 366 807 l 1
 366 203 l 1
EndSplineSet
Validated: 1
EndChar

StartChar: u
Encoding: 117 117 248
Width: 1144
Flags: W
HStem: -43 187<379.107 682.764>
VStem: 122 206<197.894 985> 800 206<264.703 985> 815 191<0 90>
LayerCount: 2
Fore
SplineSet
1006 0 m 1xd0
 815 0 l 1
 815 90 l 1xd0
 722 -5 620 -43 477 -43 c 0
 254 -43 122 69 122 236 c 2
 122 985 l 1
 328 985 l 1
 328 303 l 2
 328 203 406 144 527 144 c 0
 692 144 800 257 800 435 c 2
 800 985 l 1
 1006 985 l 1xe0
 1006 0 l 1xd0
EndSplineSet
Validated: 1
EndChar

StartChar: v
Encoding: 118 118 249
Width: 1039
Flags: W
HStem: 0 21G<388.345 629.406> 965 20G<19 255.574 796.95 1035>
LayerCount: 2
Fore
SplineSet
621 0 m 1
 396 0 l 1
 19 985 l 1
 248 985 l 1
 518 272 l 1
 805 985 l 1
 1035 985 l 1
 621 0 l 1
EndSplineSet
Validated: 1
EndChar

StartChar: w
Encoding: 119 119 250
Width: 1506
Flags: W
HStem: 0 21G<305.888 532.667 920.6 1150.19> 965 20G<11 242.463 630.323 873.25 1261.11 1497>
LayerCount: 2
Fore
SplineSet
1143 0 m 1
 926 0 l 1
 747 663 l 1
 526 0 l 1
 312 0 l 1
 11 985 l 1
 237 985 l 1
 417 326 l 1
 637 985 l 1
 868 985 l 1
 1041 326 l 1
 1268 985 l 1
 1497 985 l 1
 1143 0 l 1
EndSplineSet
Validated: 1
EndChar

StartChar: x
Encoding: 120 120 251
Width: 1039
Flags: W
HStem: 0 21G<32 286.783 774.518 1034> 965 20G<51 305.276 771.785 1025>
LayerCount: 2
Fore
SplineSet
665 509 m 1
 1034 0 l 1
 790 0 l 1
 533 332 l 1
 271 0 l 1
 32 0 l 1
 409 502 l 1
 51 985 l 1
 290 985 l 1
 539 659 l 1
 787 985 l 1
 1025 985 l 1
 665 509 l 1
EndSplineSet
Validated: 1
EndChar

StartChar: y
Encoding: 121 121 252
Width: 1039
Flags: W
HStem: -410 204<112.307 310.479>
LayerCount: 2
Fore
SplineSet
242 -410 m 0
 189 -410 157 -400 111 -375 c 1
 111 -187 l 1
 141 -195 l 2
 175 -202 199 -206 219 -206 c 0
 280 -206 306 -183 328 -126 c 1
 391 22 l 1
 38 985 l 1
 258 985 l 1
 517 270 l 1
 796 985 l 1
 1019 985 l 1
 545 -191 l 1
 509 -276 476 -319 417 -358 c 0
 375 -387 311 -410 242 -410 c 0
EndSplineSet
Validated: 1
EndChar

StartChar: z
Encoding: 122 122 253
Width: 1039
Flags: W
HStem: 0 187<329 959> 797 188<98 661>
LayerCount: 2
Fore
SplineSet
932 985 m 1
 932 813 l 1
 329 187 l 1
 959 187 l 1
 959 0 l 1
 58 0 l 1
 58 165 l 1
 661 797 l 1
 98 797 l 1
 98 985 l 1
 932 985 l 1
EndSplineSet
Validated: 1
EndChar

StartChar: sterling
Encoding: 163 163 254
Width: 1038
Flags: W
HStem: -20 213<369.797 990.999> 614 199<45 145 458 683> 1278 227<399.486 632.224>
VStem: 88 228<881.77 1195.27> 256 210<331.185 612.035> 717 217<969 1192.54>
LayerCount: 2
Fore
SplineSet
450 -24 m 1xec
 340 -24 243 -50 150 -61 c 1
 42 125 l 1
 63 146 l 1
 136 209 158 233 184 279 c 0
 233 365 256 427 256 495 c 0xec
 256 532 249 571 236 614 c 1
 45 614 l 1
 45 813 l 1
 145 813 l 1
 99 930 88 983 88 1057 c 0
 88 1323 274 1505 527 1505 c 0
 858 1505 934 1212 934 1034 c 2
 934 969 l 1
 717 969 l 1
 717 1022 l 2
 717 1186 630 1278 517 1278 c 0
 404 1278 316 1179 316 1057 c 0xf4
 316 1002 334 938 389 813 c 1
 683 813 l 1
 683 614 l 1
 458 614 l 1
 464 573 466 539 466 504 c 0
 466 445 460 389 450 337 c 1
 448 333 l 1
 424 270 404 230 366 186 c 1
 418 190 479 191 541 191 c 2
 563 191 l 2
 632 191 699 193 760 193 c 0
 865 193 951 187 993 154 c 1
 993 -53 l 1
 956 -44 l 1
 899 -25 803 -20 701 -20 c 0
 616 -20 526 -24 450 -24 c 1xec
EndSplineSet
Validated: 1
EndChar

StartChar: Euro
Encoding: 8364 8364 255
Width: 1161
Flags: W
HStem: -63 197<626.792 1008.82> 452 161<106 198 436 828> 687 161<106 200 439 920> 1155 197<624.125 1023.26>
VStem: 217 219<339.626 452 848 954.881>
LayerCount: 2
Fore
SplineSet
771 -63 m 0
 641 -63 498 -9 394 98 c 1
 303 192 244 314 217 452 c 1
 46 452 l 1
 106 613 l 1
 198 613 l 1
 198 639 l 0
 198 657 200 674 200 687 c 1
 46 687 l 1
 106 848 l 1
 221 848 l 1
 250 980 307 1094 387 1180 c 1
 491 1294 639 1352 818 1352 c 0
 944 1352 1048 1323 1131 1270 c 0
 1148 1259 l 1
 1075 1082 l 1
 1051 1096 l 0
 975 1140 899 1155 798 1155 c 0
 617 1155 491 1043 439 848 c 1
 982 848 l 1
 920 687 l 1
 416 687 l 1
 416 668 415 655 415 641 c 0
 415 629 415 619 415 613 c 1
 893 613 l 1
 828 452 l 1
 436 452 l 1
 489 248 634 134 773 134 c 0
 878 134 944 146 1020 184 c 0
 1044 197 l 1
 1116 19 l 1
 1097 8 l 0
 1001 -46 893 -63 771 -63 c 0
EndSplineSet
Validated: 1
EndChar
